G04 --- HEADER BEGIN --- *
G04 #@! TF.GenerationSoftware,LibrePCB,LibrePCB,2.1.1*
G04 #@! TF.CreationDate,2026-06-15T03:22:33*
G04 #@! TF.ProjectId,atmega328_uart_servodriver,c2782951-d4af-45cf-b0d1-a6685f95ab20,v1*
G04 #@! TF.Part,Single*
G04 #@! TF.SameCoordinates*
G04 #@! TF.FileFunction,Soldermask,Bot*
G04 #@! TF.FilePolarity,Negative*
%FSLAX66Y66*%
%MOMM*%
G01*
G75*
G04 --- HEADER END --- *
G04 --- APERTURE LIST BEGIN --- *
%AMROUNDEDRECT10*20,1,1.787,-1.095,0.0,1.095,0.0,90.0*20,1,1.587,-1.195,0.0,1.195,0.0,90.0*1,1,0.2,-0.7935,-1.095*1,1,0.2,-0.7935,1.095*1,1,0.2,0.7935,1.095*1,1,0.2,0.7935,-1.095*%
%ADD10ROUNDEDRECT10*%
%ADD11O,1.787X2.39*%
%AMROUNDEDRECT12*20,1,2.8,-1.3,0.0,1.3,0.0,0.0*20,1,2.6,-1.4,0.0,1.4,0.0,0.0*1,1,0.2,-1.3,1.3*1,1,0.2,1.3,1.3*1,1,0.2,1.3,-1.3*1,1,0.2,-1.3,-1.3*%
%ADD12ROUNDEDRECT12*%
%ADD13C,2.8*%
%AMROUNDEDRECT14*20,1,1.8,-0.8,0.0,0.8,0.0,0.0*20,1,1.6,-0.9,0.0,0.9,0.0,0.0*1,1,0.2,-0.8,0.8*1,1,0.2,0.8,0.8*1,1,0.2,0.8,-0.8*1,1,0.2,-0.8,-0.8*%
%ADD14ROUNDEDRECT14*%
%ADD15C,1.8*%
%ADD16C,1.9*%
%AMROUNDEDRECT17*20,1,1.9,-0.85,0.0,0.85,0.0,0.0*20,1,1.7,-0.95,0.0,0.95,0.0,0.0*1,1,0.2,-0.85,0.85*1,1,0.2,0.85,0.85*1,1,0.2,0.85,-0.85*1,1,0.2,-0.85,-0.85*%
%ADD17ROUNDEDRECT17*%
%ADD18C,2.0*%
G04 --- APERTURE LIST END --- *
G04 --- BOARD BEGIN --- *
D10*
G04 #@! TO.C,J3*
X17780000Y3175000D03*
D11*
X12700000Y3175000D03*
X15240000Y3175000D03*
D10*
G04 #@! TO.C,J4*
X27305000Y3175000D03*
D11*
X22225000Y3175000D03*
X24765000Y3175000D03*
D10*
G04 #@! TO.C,J6*
X46355000Y3175000D03*
D11*
X41275000Y3175000D03*
X43815000Y3175000D03*
D12*
G04 #@! TO.C,J1*
X9294500Y25431750D03*
D13*
X4294500Y25431750D03*
D10*
G04 #@! TO.C,J5*
X36830000Y3175000D03*
D11*
X31750000Y3175000D03*
X34290000Y3175000D03*
D14*
G04 #@! TO.C,C1*
X9485000Y15240000D03*
D15*
X4485000Y15240000D03*
D10*
G04 #@! TO.C,J2*
X8255000Y3175000D03*
D11*
X3175000Y3175000D03*
X5715000Y3175000D03*
D10*
G04 #@! TO.C,J7*
X55721250Y3175000D03*
D11*
X50641250Y3175000D03*
X53181250Y3175000D03*
D16*
G04 #@! TO.C,U1*
X53213000Y30067250D03*
X32893000Y14827250D03*
X43053000Y14827250D03*
X45593000Y14827250D03*
X40513000Y14827250D03*
X35433000Y14827250D03*
X35433000Y30067250D03*
X40513000Y30067250D03*
X53213000Y14827250D03*
X45593000Y30067250D03*
X22733000Y30067250D03*
D17*
X55753000Y30067250D03*
D16*
X37973000Y30067250D03*
X27813000Y30067250D03*
X25273000Y30067250D03*
X50673000Y30067250D03*
X55753000Y14827250D03*
X30353000Y14827250D03*
X32893000Y30067250D03*
X43053000Y30067250D03*
X37973000Y14827250D03*
X48133000Y14827250D03*
X50673000Y14827250D03*
X25273000Y14827250D03*
X20193000Y30067250D03*
X27813000Y14827250D03*
X48133000Y30067250D03*
X30353000Y30067250D03*
X20193000Y14827250D03*
X22733000Y14827250D03*
D18*
G04 #@! TD*
X58293000Y30067250D03*
X58293000Y14827250D03*
X17653000Y30067250D03*
X17653000Y14827250D03*
G04 --- BOARD END --- *
G04 #@! TF.MD5,0c0890b5bb3c51e87eb53df3a36c0c37*
M02*
