G04 --- HEADER BEGIN --- *
G04 #@! TF.GenerationSoftware,LibrePCB,LibrePCB,2.1.1*
G04 #@! TF.CreationDate,2026-06-15T03:22:33*
G04 #@! TF.ProjectId,atmega328_uart_servodriver,c2782951-d4af-45cf-b0d1-a6685f95ab20,v1*
G04 #@! TF.Part,Single*
G04 #@! TF.SameCoordinates*
G04 #@! TF.FileFunction,Copper,L1,Top*
G04 #@! TF.FilePolarity,Positive*
%FSLAX66Y66*%
%MOMM*%
G01*
G75*
G04 --- HEADER END --- *
G04 --- APERTURE LIST BEGIN --- *
G04 #@! TA.AperFunction,ComponentPad*
%ADD10R,1.587X2.19*%
%ADD11O,1.587X2.19*%
G04 #@! TA.AperFunction,SMDPad,CuDef*
%ADD12R,1.05X1.6*%
G04 #@! TA.AperFunction,ComponentPad*
%ADD13R,2.6X2.6*%
%ADD14C,2.6*%
%ADD15R,1.6X1.6*%
%ADD16C,1.6*%
%ADD17C,1.7*%
%ADD18R,1.7X1.7*%
G04 #@! TA.AperFunction,ViaPad*
%ADD19C,0.7*%
G04 #@! TA.AperFunction,Conductor*
%ADD20C,0.5*%
%ADD21C,1.016*%
G04 #@! TD*
G04 --- APERTURE LIST END --- *
G04 --- BOARD BEGIN --- *
D10*
G04 #@! TO.N,N2*
G04 #@! TO.C,J3*
G04 #@! TO.P,J3,1,1*
X17780000Y3175000D03*
D11*
G04 #@! TO.N,GND*
G04 #@! TO.P,J3,3,3*
X12700000Y3175000D03*
G04 #@! TO.N,VCC*
G04 #@! TO.P,J3,2,2*
X15240000Y3175000D03*
D10*
G04 #@! TO.N,N3*
G04 #@! TO.C,J4*
G04 #@! TO.P,J4,1,1*
X27305000Y3175000D03*
D11*
G04 #@! TO.N,GND*
G04 #@! TO.P,J4,3,3*
X22225000Y3175000D03*
G04 #@! TO.N,VCC*
G04 #@! TO.P,J4,2,2*
X24765000Y3175000D03*
D12*
G04 #@! TO.C,C6*
G04 #@! TO.P,C6,2,2*
X43811250Y5873750D03*
G04 #@! TO.N,GND*
G04 #@! TO.P,C6,1,1*
X40961250Y5873750D03*
D10*
G04 #@! TO.N,N5*
G04 #@! TO.C,J6*
G04 #@! TO.P,J6,1,1*
X46355000Y3175000D03*
D11*
G04 #@! TO.N,GND*
G04 #@! TO.P,J6,3,3*
X41275000Y3175000D03*
G04 #@! TO.N,VCC*
G04 #@! TO.P,J6,2,2*
X43815000Y3175000D03*
D12*
G04 #@! TO.C,C4*
G04 #@! TO.P,C4,2,2*
X24761250Y5873750D03*
G04 #@! TO.N,GND*
G04 #@! TO.P,C4,1,1*
X21911250Y5873750D03*
G04 #@! TO.N,VCC*
G04 #@! TO.C,C3*
G04 #@! TO.P,C3,2,2*
X15236250Y5873750D03*
G04 #@! TO.N,GND*
G04 #@! TO.P,C3,1,1*
X12386250Y5873750D03*
D13*
G04 #@! TO.N,VCC*
G04 #@! TO.C,J1*
G04 #@! TO.P,J1,1,1*
X9294500Y25431750D03*
D14*
G04 #@! TO.N,GND*
G04 #@! TO.P,J1,2,2*
X4294500Y25431750D03*
D10*
G04 #@! TO.N,N4*
G04 #@! TO.C,J5*
G04 #@! TO.P,J5,1,1*
X36830000Y3175000D03*
D11*
G04 #@! TO.N,GND*
G04 #@! TO.P,J5,3,3*
X31750000Y3175000D03*
G04 #@! TO.N,VCC*
G04 #@! TO.P,J5,2,2*
X34290000Y3175000D03*
D12*
G04 #@! TO.C,C7*
G04 #@! TO.P,C7,2,2*
X53177500Y5873750D03*
G04 #@! TO.N,GND*
G04 #@! TO.P,C7,1,1*
X50327500Y5873750D03*
D15*
G04 #@! TO.N,VCC*
G04 #@! TO.C,C1*
G04 #@! TO.P,C1,+,+*
X9485000Y15240000D03*
D16*
G04 #@! TO.N,GND*
G04 #@! TO.P,C1,-,-*
X4485000Y15240000D03*
D12*
G04 #@! TO.N,VCC*
G04 #@! TO.C,C5*
G04 #@! TO.P,C5,2,2*
X34286250Y5873750D03*
G04 #@! TO.N,GND*
G04 #@! TO.P,C5,1,1*
X31436250Y5873750D03*
D10*
G04 #@! TO.N,N1*
G04 #@! TO.C,J2*
G04 #@! TO.P,J2,1,1*
X8255000Y3175000D03*
D11*
G04 #@! TO.N,GND*
G04 #@! TO.P,J2,3,3*
X3175000Y3175000D03*
G04 #@! TO.N,VCC*
G04 #@! TO.P,J2,2,2*
X5715000Y3175000D03*
D10*
G04 #@! TO.N,N6*
G04 #@! TO.C,J7*
G04 #@! TO.P,J7,1,1*
X55721250Y3175000D03*
D11*
G04 #@! TO.N,GND*
G04 #@! TO.P,J7,3,3*
X50641250Y3175000D03*
G04 #@! TO.N,VCC*
G04 #@! TO.P,J7,2,2*
X53181250Y3175000D03*
D12*
G04 #@! TO.C,C2*
G04 #@! TO.P,C2,2,2*
X5711250Y5873750D03*
G04 #@! TO.N,GND*
G04 #@! TO.P,C2,1,1*
X2861250Y5873750D03*
D17*
G04 #@! TO.N,N/C*
G04 #@! TO.C,U1*
G04 #@! TO.P,U1,2,3V3*
X53213000Y30067250D03*
G04 #@! TO.N,N1*
G04 #@! TO.P,U1,21,D3*
X32893000Y14827250D03*
G04 #@! TO.N,N/C*
G04 #@! TO.P,U1,25,D7*
X43053000Y14827250D03*
G04 #@! TO.P,U1,26,D8*
X45593000Y14827250D03*
G04 #@! TO.N,N3*
G04 #@! TO.P,U1,24,D6*
X40513000Y14827250D03*
G04 #@! TO.N,N/C*
G04 #@! TO.P,U1,22,D4*
X35433000Y14827250D03*
G04 #@! TO.P,U1,9,D19/A5*
X35433000Y30067250D03*
G04 #@! TO.P,U1,7,D17/A3*
X40513000Y30067250D03*
G04 #@! TO.N,N6*
G04 #@! TO.P,U1,29,D11*
X53213000Y14827250D03*
G04 #@! TO.N,N/C*
G04 #@! TO.P,U1,5,D15/A1*
X45593000Y30067250D03*
G04 #@! TO.N,GND*
G04 #@! TO.P,U1,14,GND*
X22733000Y30067250D03*
D18*
G04 #@! TO.N,N/C*
G04 #@! TO.P,U1,1,D13*
X55753000Y30067250D03*
D17*
G04 #@! TO.P,U1,8,D18/A4*
X37973000Y30067250D03*
G04 #@! TO.P,U1,12,5V*
X27813000Y30067250D03*
G04 #@! TO.P,U1,13,!RESET*
X25273000Y30067250D03*
G04 #@! TO.P,U1,3,AREF*
X50673000Y30067250D03*
G04 #@! TO.P,U1,30,D12*
X55753000Y14827250D03*
G04 #@! TO.P,U1,20,D2*
X30353000Y14827250D03*
G04 #@! TO.P,U1,10,A6*
X32893000Y30067250D03*
G04 #@! TO.P,U1,6,D16/A2*
X43053000Y30067250D03*
G04 #@! TO.N,N2*
G04 #@! TO.P,U1,23,D5*
X37973000Y14827250D03*
G04 #@! TO.N,N4*
G04 #@! TO.P,U1,27,D9*
X48133000Y14827250D03*
G04 #@! TO.N,N5*
G04 #@! TO.P,U1,28,D10*
X50673000Y14827250D03*
G04 #@! TO.N,N/C*
G04 #@! TO.P,U1,18,!RESET*
X25273000Y14827250D03*
G04 #@! TO.P,U1,15,VIN*
X20193000Y30067250D03*
G04 #@! TO.N,GND*
G04 #@! TO.P,U1,19,GND*
X27813000Y14827250D03*
G04 #@! TO.N,N/C*
G04 #@! TO.P,U1,4,D14/A0*
X48133000Y30067250D03*
G04 #@! TO.P,U1,11,A7*
X30353000Y30067250D03*
G04 #@! TO.P,U1,16,D1/TX*
X20193000Y14827250D03*
G04 #@! TO.P,U1,17,D0/RX*
X22733000Y14827250D03*
D19*
G04 #@! TD.C*
G04 #@! TD.P*
G04 #@! TO.N,GND*
X12382500Y7302500D03*
D20*
X12386250Y5873750D02*
X12382500Y5873750D01*
X12382500Y7302500D02*
X12382500Y5873750D01*
G04 #@! TO.N,N4*
X48133000Y14827250D02*
X44577000Y11271250D01*
X36830000Y3175000D02*
X36830000Y7143750D01*
X36830000Y7143750D02*
X40957500Y11271250D01*
X40957500Y11271250D02*
X44577000Y11271250D01*
D19*
G04 #@! TO.N,GND*
X31432500Y7302500D03*
D20*
X31436250Y5873750D02*
X31432500Y5873750D01*
X31432500Y7302500D02*
X31432500Y5873750D01*
D19*
G04 #@! TO.N,VCC*
X5715000Y7461250D03*
X24765000Y7302500D03*
X15240000Y7302500D03*
X34290000Y7620000D03*
X43815000Y7620000D03*
X53181250Y7778750D03*
D20*
X24765000Y3175000D02*
X24765000Y5873750D01*
D21*
X9485000Y15240000D02*
X9326250Y25431750D01*
D20*
X53177500Y5873750D02*
X53177500Y7775000D01*
X43815000Y3175000D02*
X43811250Y3175000D01*
X43815000Y7620000D02*
X43811250Y7616250D01*
X9294500Y25431750D02*
X9326250Y25431750D01*
X53177500Y5873750D02*
X53177500Y3175000D01*
X43811250Y5873750D02*
X43811250Y7616250D01*
X34286250Y5873750D02*
X34286250Y3175000D01*
X24765000Y7302500D02*
X24765000Y5873750D01*
X5711250Y5873750D02*
X5711250Y7457500D01*
X53181250Y7778750D02*
X53177500Y7775000D01*
X34290000Y3175000D02*
X34286250Y3175000D01*
X24761250Y5873750D02*
X24765000Y5873750D01*
X53181250Y3175000D02*
X53177500Y3175000D01*
X15240000Y7302500D02*
X15240000Y5873750D01*
X5715000Y3175000D02*
X5711250Y3175000D01*
X15236250Y5873750D02*
X15240000Y5873750D01*
X43811250Y5873750D02*
X43811250Y3175000D01*
X15240000Y3175000D02*
X15240000Y5873750D01*
X34290000Y7620000D02*
X34286250Y7616250D01*
X34286250Y5873750D02*
X34286250Y7616250D01*
X5715000Y7461250D02*
X5711250Y7457500D01*
X5711250Y5873750D02*
X5711250Y3175000D01*
G04 #@! TO.N,N6*
X55721250Y3175000D02*
X55721250Y12319000D01*
X53213000Y14827250D02*
X55721250Y12319000D01*
G04 #@! TO.N,N1*
X8255000Y3175000D02*
X8255000Y6508750D01*
X32893000Y14827250D02*
X30289500Y12382500D01*
X14128750Y12382500D02*
X30289500Y12382500D01*
X14128750Y12382500D02*
X8255000Y6508750D01*
D19*
G04 #@! TO.N,GND*
X21907500Y7302500D03*
D20*
X21911250Y5873750D02*
X21907500Y5873750D01*
X21907500Y7302500D02*
X21907500Y5873750D01*
G04 #@! TO.N,N5*
X46355000Y3175000D02*
X46355000Y10509250D01*
X50673000Y14827250D02*
X46355000Y10509250D01*
D19*
G04 #@! TO.N,GND*
X2857500Y7302500D03*
D20*
X2857500Y7302500D02*
X2857500Y5873750D01*
X2861250Y5873750D02*
X2857500Y5873750D01*
G04 #@! TO.N,N2*
X35687000Y12541250D02*
X32067500Y12541250D01*
X17780000Y3175000D02*
X17780000Y10160000D01*
X19050000Y11271250D02*
X17780000Y10160000D01*
X19050000Y11271250D02*
X30797500Y11271250D01*
X37973000Y14827250D02*
X35687000Y12541250D01*
X32067500Y12541250D02*
X30797500Y11271250D01*
G04 #@! TO.N,N3*
X40513000Y14827250D02*
X36957000Y11271250D01*
X31432500Y10001250D02*
X28416250Y10001250D01*
X28416250Y10001250D02*
X27305000Y8890000D01*
X36957000Y11271250D02*
X32702500Y11271250D01*
X31432500Y10001250D02*
X32702500Y11271250D01*
X27305000Y3175000D02*
X27305000Y8890000D01*
D19*
G04 #@! TO.N,GND*
X40957500Y7302500D03*
D20*
X40961250Y5873750D02*
X40957500Y5873750D01*
X40957500Y7302500D02*
X40957500Y5873750D01*
D19*
X50323750Y7302500D03*
D20*
X50327500Y5873750D02*
X50323750Y5873750D01*
X50323750Y7302500D02*
X50323750Y5873750D01*
G04 --- BOARD END --- *
G04 #@! TF.MD5,a828a5492fbf8d528cb5c3f44193965a*
M02*
