G04 --- HEADER BEGIN --- *
G04 #@! TF.GenerationSoftware,LibrePCB,LibrePCB,2.1.1*
G04 #@! TF.CreationDate,2026-06-15T03:22:33*
G04 #@! TF.ProjectId,atmega328_uart_servodriver,c2782951-d4af-45cf-b0d1-a6685f95ab20,v1*
G04 #@! TF.Part,Single*
G04 #@! TF.SameCoordinates*
G04 #@! TF.FileFunction,Legend,Bot*
G04 #@! TF.FilePolarity,Positive*
%FSLAX66Y66*%
%MOMM*%
G01*
G75*
G04 --- HEADER END --- *
G04 --- APERTURE LIST BEGIN --- *
%ADD10C,0.2*%
%AMROUNDEDRECT11*20,1,1.787,-1.095,0.0,1.095,0.0,90.0*20,1,1.587,-1.195,0.0,1.195,0.0,90.0*1,1,0.2,-0.7935,-1.095*1,1,0.2,-0.7935,1.095*1,1,0.2,0.7935,1.095*1,1,0.2,0.7935,-1.095*%
%ADD11ROUNDEDRECT11*%
%ADD12O,1.787X2.39*%
%AMROUNDEDRECT13*20,1,2.8,-1.3,0.0,1.3,0.0,0.0*20,1,2.6,-1.4,0.0,1.4,0.0,0.0*1,1,0.2,-1.3,1.3*1,1,0.2,1.3,1.3*1,1,0.2,1.3,-1.3*1,1,0.2,-1.3,-1.3*%
%ADD13ROUNDEDRECT13*%
%ADD14C,2.8*%
%AMROUNDEDRECT15*20,1,1.8,-0.8,0.0,0.8,0.0,0.0*20,1,1.6,-0.9,0.0,0.9,0.0,0.0*1,1,0.2,-0.8,0.8*1,1,0.2,0.8,0.8*1,1,0.2,0.8,-0.8*1,1,0.2,-0.8,-0.8*%
%ADD15ROUNDEDRECT15*%
%ADD16C,1.8*%
%ADD17C,1.9*%
%AMROUNDEDRECT18*20,1,1.9,-0.85,0.0,0.85,0.0,0.0*20,1,1.7,-0.95,0.0,0.95,0.0,0.0*1,1,0.2,-0.85,0.85*1,1,0.2,0.85,0.85*1,1,0.2,0.85,-0.85*1,1,0.2,-0.85,-0.85*%
%ADD18ROUNDEDRECT18*%
%ADD19C,2.0*%
G04 --- APERTURE LIST END --- *
G04 --- BOARD BEGIN --- *
D10*
X54466246Y23653750D02*
X54466246Y22438750D01*
X54394579Y22297083D01*
X54322913Y22225417D01*
X54181246Y22153750D01*
X53894579Y22153750D01*
X53751246Y22225417D01*
X53681246Y22297083D01*
X53609579Y22438750D01*
X53609579Y23653750D01*
X53109579Y22225417D02*
X52894579Y22153750D01*
X52537912Y22153750D01*
X52394579Y22225417D01*
X52324579Y22297083D01*
X52252912Y22438750D01*
X52252912Y22582083D01*
X52324579Y22725417D01*
X52394579Y22797083D01*
X52537912Y22868750D01*
X52824579Y22938750D01*
X52966246Y23010417D01*
X53037912Y23082083D01*
X53109579Y23225417D01*
X53109579Y23368750D01*
X53037912Y23510417D01*
X52966246Y23582083D01*
X52824579Y23653750D01*
X52466246Y23653750D01*
X52252912Y23582083D01*
X51252912Y22938750D02*
X51037912Y22868750D01*
X50967912Y22797083D01*
X50896245Y22653750D01*
X50896245Y22438750D01*
X50967912Y22297083D01*
X51037912Y22225417D01*
X51181245Y22153750D01*
X51752912Y22153750D01*
X51752912Y23653750D01*
X51252912Y23653750D01*
X51109579Y23582083D01*
X51037912Y23510417D01*
X50967912Y23368750D01*
X50967912Y23225417D01*
X51037912Y23082083D01*
X51109579Y23010417D01*
X51252912Y22938750D01*
X51752912Y22938750D01*
X49296246Y22225417D02*
X49081246Y22153750D01*
X48724579Y22153750D01*
X48581246Y22225417D01*
X48511246Y22297083D01*
X48439579Y22438750D01*
X48439579Y22582083D01*
X48511246Y22725417D01*
X48581246Y22797083D01*
X48724579Y22868750D01*
X49011246Y22938750D01*
X49152913Y23010417D01*
X49224579Y23082083D01*
X49296246Y23225417D01*
X49296246Y23368750D01*
X49224579Y23510417D01*
X49152913Y23582083D01*
X49011246Y23653750D01*
X48652913Y23653750D01*
X48439579Y23582083D01*
X47296246Y22225417D02*
X47439579Y22153750D01*
X47724579Y22153750D01*
X47867912Y22225417D01*
X47939579Y22368750D01*
X47939579Y22938750D01*
X47867912Y23082083D01*
X47724579Y23153750D01*
X47439579Y23153750D01*
X47296246Y23082083D01*
X47224579Y22938750D01*
X47224579Y22797083D01*
X47939579Y22653750D01*
X46724579Y22153750D02*
X46724579Y23153750D01*
X46724579Y22868750D02*
X46652912Y23010417D01*
X46581246Y23082083D01*
X46439579Y23153750D01*
X46296246Y23153750D01*
X45724579Y22153750D02*
X45724579Y23153750D01*
X45724579Y23653750D02*
X45796246Y23582083D01*
X45724579Y23510417D01*
X45652913Y23582083D01*
X45724579Y23653750D01*
X45724579Y23510417D01*
X44437913Y22153750D02*
X44437913Y22938750D01*
X44509580Y23082083D01*
X44652913Y23153750D01*
X44937913Y23153750D01*
X45081246Y23082083D01*
X44437913Y22225417D02*
X44581246Y22153750D01*
X44937913Y22153750D01*
X45081246Y22225417D01*
X45152913Y22368750D01*
X45152913Y22510417D01*
X45081246Y22653750D01*
X44937913Y22725417D01*
X44581246Y22725417D01*
X44437913Y22797083D01*
X43722913Y22153750D02*
X43866246Y22225417D01*
X43937913Y22368750D01*
X43937913Y23653750D01*
X42122914Y22225417D02*
X41907914Y22153750D01*
X41551247Y22153750D01*
X41407914Y22225417D01*
X41337914Y22297083D01*
X41266247Y22438750D01*
X41266247Y22582083D01*
X41337914Y22725417D01*
X41407914Y22797083D01*
X41551247Y22868750D01*
X41837914Y22938750D01*
X41979581Y23010417D01*
X42051247Y23082083D01*
X42122914Y23225417D01*
X42122914Y23368750D01*
X42051247Y23510417D01*
X41979581Y23582083D01*
X41837914Y23653750D01*
X41479581Y23653750D01*
X41266247Y23582083D01*
X40122914Y22225417D02*
X40266247Y22153750D01*
X40551247Y22153750D01*
X40694580Y22225417D01*
X40766247Y22368750D01*
X40766247Y22938750D01*
X40694580Y23082083D01*
X40551247Y23153750D01*
X40266247Y23153750D01*
X40122914Y23082083D01*
X40051247Y22938750D01*
X40051247Y22797083D01*
X40766247Y22653750D01*
X39551247Y22153750D02*
X39551247Y23153750D01*
X39551247Y22868750D02*
X39479580Y23010417D01*
X39407914Y23082083D01*
X39266247Y23153750D01*
X39122914Y23153750D01*
X38622914Y23153750D02*
X38266247Y22153750D01*
X37907914Y23153750D01*
X37122914Y22153750D02*
X37264581Y22225417D01*
X37336247Y22297083D01*
X37407914Y22438750D01*
X37407914Y22868750D01*
X37336247Y23010417D01*
X37264581Y23082083D01*
X37122914Y23153750D01*
X36907914Y23153750D01*
X36764581Y23082083D01*
X36692914Y23010417D01*
X36622914Y22868750D01*
X36622914Y22438750D01*
X36692914Y22297083D01*
X36764581Y22225417D01*
X36907914Y22153750D01*
X37122914Y22153750D01*
X35022915Y22153750D02*
X35022915Y23653750D01*
X34522915Y22582083D01*
X34022915Y23653750D01*
X34022915Y22153750D01*
X33237915Y22153750D02*
X33379582Y22225417D01*
X33451248Y22297083D01*
X33522915Y22438750D01*
X33522915Y22868750D01*
X33451248Y23010417D01*
X33379582Y23082083D01*
X33237915Y23153750D01*
X33022915Y23153750D01*
X32879582Y23082083D01*
X32807915Y23010417D01*
X32737915Y22868750D01*
X32737915Y22438750D01*
X32807915Y22297083D01*
X32879582Y22225417D01*
X33022915Y22153750D01*
X33237915Y22153750D01*
X32237915Y23153750D02*
X31666248Y23153750D01*
X32022915Y23653750D02*
X32022915Y22368750D01*
X31952915Y22225417D01*
X31809582Y22153750D01*
X31666248Y22153750D01*
X30881248Y22153750D02*
X31022915Y22225417D01*
X31094581Y22297083D01*
X31166248Y22438750D01*
X31166248Y22868750D01*
X31094581Y23010417D01*
X31022915Y23082083D01*
X30881248Y23153750D01*
X30666248Y23153750D01*
X30522915Y23082083D01*
X30451248Y23010417D01*
X30381248Y22868750D01*
X30381248Y22438750D01*
X30451248Y22297083D01*
X30522915Y22225417D01*
X30666248Y22153750D01*
X30881248Y22153750D01*
X29881248Y22153750D02*
X29881248Y23153750D01*
X29881248Y22868750D02*
X29809581Y23010417D01*
X29737915Y23082083D01*
X29596248Y23153750D01*
X29452915Y23153750D01*
X27852916Y22153750D02*
X27852916Y23653750D01*
X27496249Y23653750D01*
X27281249Y23582083D01*
X27137916Y23438750D01*
X27067916Y23297083D01*
X26996249Y23010417D01*
X26996249Y22797083D01*
X27067916Y22510417D01*
X27137916Y22368750D01*
X27281249Y22225417D01*
X27496249Y22153750D01*
X27852916Y22153750D01*
X26496249Y22153750D02*
X26496249Y23153750D01*
X26496249Y22868750D02*
X26424582Y23010417D01*
X26352916Y23082083D01*
X26211249Y23153750D01*
X26067916Y23153750D01*
X25496249Y22153750D02*
X25496249Y23153750D01*
X25496249Y23653750D02*
X25567916Y23582083D01*
X25496249Y23510417D01*
X25424583Y23582083D01*
X25496249Y23653750D01*
X25496249Y23510417D01*
X24924583Y23153750D02*
X24567916Y22153750D01*
X24209583Y23153750D01*
X23066250Y22225417D02*
X23209583Y22153750D01*
X23494583Y22153750D01*
X23637916Y22225417D01*
X23709583Y22368750D01*
X23709583Y22938750D01*
X23637916Y23082083D01*
X23494583Y23153750D01*
X23209583Y23153750D01*
X23066250Y23082083D01*
X22994583Y22938750D01*
X22994583Y22797083D01*
X23709583Y22653750D01*
X22494583Y22153750D02*
X22494583Y23153750D01*
X22494583Y22868750D02*
X22422916Y23010417D01*
X22351250Y23082083D01*
X22209583Y23153750D01*
X22066250Y23153750D01*
%LPC*%
D11*
G04 #@! TO.C,J3*
X17780000Y3175000D03*
D12*
X12700000Y3175000D03*
X15240000Y3175000D03*
D11*
G04 #@! TO.C,J4*
X27305000Y3175000D03*
D12*
X22225000Y3175000D03*
X24765000Y3175000D03*
D11*
G04 #@! TO.C,J6*
X46355000Y3175000D03*
D12*
X41275000Y3175000D03*
X43815000Y3175000D03*
D13*
G04 #@! TO.C,J1*
X9294500Y25431750D03*
D14*
X4294500Y25431750D03*
D11*
G04 #@! TO.C,J5*
X36830000Y3175000D03*
D12*
X31750000Y3175000D03*
X34290000Y3175000D03*
D15*
G04 #@! TO.C,C1*
X9485000Y15240000D03*
D16*
X4485000Y15240000D03*
D11*
G04 #@! TO.C,J2*
X8255000Y3175000D03*
D12*
X3175000Y3175000D03*
X5715000Y3175000D03*
D11*
G04 #@! TO.C,J7*
X55721250Y3175000D03*
D12*
X50641250Y3175000D03*
X53181250Y3175000D03*
D17*
G04 #@! TO.C,U1*
X53213000Y30067250D03*
X32893000Y14827250D03*
X43053000Y14827250D03*
X45593000Y14827250D03*
X40513000Y14827250D03*
X35433000Y14827250D03*
X35433000Y30067250D03*
X40513000Y30067250D03*
X53213000Y14827250D03*
X45593000Y30067250D03*
X22733000Y30067250D03*
D18*
X55753000Y30067250D03*
D17*
X37973000Y30067250D03*
X27813000Y30067250D03*
X25273000Y30067250D03*
X50673000Y30067250D03*
X55753000Y14827250D03*
X30353000Y14827250D03*
X32893000Y30067250D03*
X43053000Y30067250D03*
X37973000Y14827250D03*
X48133000Y14827250D03*
X50673000Y14827250D03*
X25273000Y14827250D03*
X20193000Y30067250D03*
X27813000Y14827250D03*
X48133000Y30067250D03*
X30353000Y30067250D03*
X20193000Y14827250D03*
X22733000Y14827250D03*
D19*
G04 #@! TD*
X58293000Y30067250D03*
X58293000Y14827250D03*
X17653000Y30067250D03*
X17653000Y14827250D03*
G04 --- BOARD END --- *
G04 #@! TF.MD5,0fabc47cf668dc2f8f9183c5b5950fd9*
M02*
