G04 --- HEADER BEGIN --- *
G04 #@! TF.GenerationSoftware,LibrePCB,LibrePCB,2.1.1*
G04 #@! TF.CreationDate,2026-06-15T03:22:33*
G04 #@! TF.ProjectId,atmega328_uart_servodriver,c2782951-d4af-45cf-b0d1-a6685f95ab20,v1*
G04 #@! TF.Part,Single*
G04 #@! TF.SameCoordinates*
G04 #@! TF.FileFunction,Copper,L2,Bot*
G04 #@! TF.FilePolarity,Positive*
%FSLAX66Y66*%
%MOMM*%
G01*
G75*
G04 --- HEADER END --- *
G04 --- APERTURE LIST BEGIN --- *
G04 #@! TA.AperFunction,ComponentPad*
%ADD10R,1.587X2.19*%
%ADD11O,1.587X2.19*%
%ADD12R,2.6X2.6*%
%ADD13C,2.6*%
%ADD14R,1.6X1.6*%
%ADD15C,1.6*%
%ADD16C,1.7*%
%ADD17R,1.7X1.7*%
G04 #@! TA.AperFunction,ViaPad*
%ADD18C,0.7*%
G04 #@! TA.AperFunction,Conductor*
%ADD19C,0.762*%
%ADD20C,0.5*%
%ADD21C,0.01*%
G04 #@! TD*
G04 --- APERTURE LIST END --- *
G04 --- BOARD BEGIN --- *
D10*
G04 #@! TO.N,N2*
G04 #@! TO.C,J3*
G04 #@! TO.P,J3,1,1*
X17780000Y3175000D03*
D11*
G04 #@! TO.N,GND*
G04 #@! TO.P,J3,3,3*
X12700000Y3175000D03*
G04 #@! TO.N,VCC*
G04 #@! TO.P,J3,2,2*
X15240000Y3175000D03*
D10*
G04 #@! TO.N,N3*
G04 #@! TO.C,J4*
G04 #@! TO.P,J4,1,1*
X27305000Y3175000D03*
D11*
G04 #@! TO.N,GND*
G04 #@! TO.P,J4,3,3*
X22225000Y3175000D03*
G04 #@! TO.N,VCC*
G04 #@! TO.P,J4,2,2*
X24765000Y3175000D03*
D10*
G04 #@! TO.N,N5*
G04 #@! TO.C,J6*
G04 #@! TO.P,J6,1,1*
X46355000Y3175000D03*
D11*
G04 #@! TO.N,GND*
G04 #@! TO.P,J6,3,3*
X41275000Y3175000D03*
G04 #@! TO.N,VCC*
G04 #@! TO.P,J6,2,2*
X43815000Y3175000D03*
D12*
G04 #@! TO.C,J1*
G04 #@! TO.P,J1,1,1*
X9294500Y25431750D03*
D13*
G04 #@! TO.N,GND*
G04 #@! TO.P,J1,2,2*
X4294500Y25431750D03*
D10*
G04 #@! TO.N,N4*
G04 #@! TO.C,J5*
G04 #@! TO.P,J5,1,1*
X36830000Y3175000D03*
D11*
G04 #@! TO.N,GND*
G04 #@! TO.P,J5,3,3*
X31750000Y3175000D03*
G04 #@! TO.N,VCC*
G04 #@! TO.P,J5,2,2*
X34290000Y3175000D03*
D14*
G04 #@! TO.C,C1*
G04 #@! TO.P,C1,+,+*
X9485000Y15240000D03*
D15*
G04 #@! TO.N,GND*
G04 #@! TO.P,C1,-,-*
X4485000Y15240000D03*
D10*
G04 #@! TO.N,N1*
G04 #@! TO.C,J2*
G04 #@! TO.P,J2,1,1*
X8255000Y3175000D03*
D11*
G04 #@! TO.N,GND*
G04 #@! TO.P,J2,3,3*
X3175000Y3175000D03*
G04 #@! TO.N,VCC*
G04 #@! TO.P,J2,2,2*
X5715000Y3175000D03*
D10*
G04 #@! TO.N,N6*
G04 #@! TO.C,J7*
G04 #@! TO.P,J7,1,1*
X55721250Y3175000D03*
D11*
G04 #@! TO.N,GND*
G04 #@! TO.P,J7,3,3*
X50641250Y3175000D03*
G04 #@! TO.N,VCC*
G04 #@! TO.P,J7,2,2*
X53181250Y3175000D03*
D16*
G04 #@! TO.N,N/C*
G04 #@! TO.C,U1*
G04 #@! TO.P,U1,2,3V3*
X53213000Y30067250D03*
G04 #@! TO.N,N1*
G04 #@! TO.P,U1,21,D3*
X32893000Y14827250D03*
G04 #@! TO.N,N/C*
G04 #@! TO.P,U1,25,D7*
X43053000Y14827250D03*
G04 #@! TO.P,U1,26,D8*
X45593000Y14827250D03*
G04 #@! TO.N,N3*
G04 #@! TO.P,U1,24,D6*
X40513000Y14827250D03*
G04 #@! TO.N,N/C*
G04 #@! TO.P,U1,22,D4*
X35433000Y14827250D03*
G04 #@! TO.P,U1,9,D19/A5*
X35433000Y30067250D03*
G04 #@! TO.P,U1,7,D17/A3*
X40513000Y30067250D03*
G04 #@! TO.N,N6*
G04 #@! TO.P,U1,29,D11*
X53213000Y14827250D03*
G04 #@! TO.N,N/C*
G04 #@! TO.P,U1,5,D15/A1*
X45593000Y30067250D03*
G04 #@! TO.N,GND*
G04 #@! TO.P,U1,14,GND*
X22733000Y30067250D03*
D17*
G04 #@! TO.N,N/C*
G04 #@! TO.P,U1,1,D13*
X55753000Y30067250D03*
D16*
G04 #@! TO.P,U1,8,D18/A4*
X37973000Y30067250D03*
G04 #@! TO.P,U1,12,5V*
X27813000Y30067250D03*
G04 #@! TO.P,U1,13,!RESET*
X25273000Y30067250D03*
G04 #@! TO.P,U1,3,AREF*
X50673000Y30067250D03*
G04 #@! TO.P,U1,30,D12*
X55753000Y14827250D03*
G04 #@! TO.P,U1,20,D2*
X30353000Y14827250D03*
G04 #@! TO.P,U1,10,A6*
X32893000Y30067250D03*
G04 #@! TO.P,U1,6,D16/A2*
X43053000Y30067250D03*
G04 #@! TO.N,N2*
G04 #@! TO.P,U1,23,D5*
X37973000Y14827250D03*
G04 #@! TO.N,N4*
G04 #@! TO.P,U1,27,D9*
X48133000Y14827250D03*
G04 #@! TO.N,N5*
G04 #@! TO.P,U1,28,D10*
X50673000Y14827250D03*
G04 #@! TO.N,N/C*
G04 #@! TO.P,U1,18,!RESET*
X25273000Y14827250D03*
G04 #@! TO.P,U1,15,VIN*
X20193000Y30067250D03*
G04 #@! TO.N,GND*
G04 #@! TO.P,U1,19,GND*
X27813000Y14827250D03*
G04 #@! TO.N,N/C*
G04 #@! TO.P,U1,4,D14/A0*
X48133000Y30067250D03*
G04 #@! TO.P,U1,11,A7*
X30353000Y30067250D03*
G04 #@! TO.P,U1,16,D1/TX*
X20193000Y14827250D03*
G04 #@! TO.P,U1,17,D0/RX*
X22733000Y14827250D03*
D18*
G04 #@! TD.C*
G04 #@! TD.P*
G04 #@! TO.N,GND*
X12382500Y7302500D03*
X31432500Y7302500D03*
G04 #@! TO.N,VCC*
X5715000Y7461250D03*
X24765000Y7302500D03*
X15240000Y7302500D03*
X34290000Y7620000D03*
X43815000Y7620000D03*
X53181250Y7778750D03*
D19*
X9485000Y15240000D02*
X15200000Y9525000D01*
X34290000Y9048750D02*
X43815000Y9048750D01*
X24765000Y7302500D02*
X24765000Y7937500D01*
X43815000Y9048750D02*
X51911250Y9048750D01*
X34290000Y7620000D02*
X34290000Y9048750D01*
X23653750Y9048750D02*
X15716250Y9048750D01*
X9366250Y9048750D02*
X7778750Y7461250D01*
D20*
X9485000Y15240000D02*
X9326250Y25431750D01*
D19*
X43815000Y7620000D02*
X43815000Y9048750D01*
X15716250Y9048750D02*
X15240000Y9525000D01*
D20*
X9294500Y25431750D02*
X9326250Y25431750D01*
D19*
X5715000Y7461250D02*
X7778750Y7461250D01*
X23653750Y9048750D02*
X34290000Y9048750D01*
X53181250Y7778750D02*
X51911250Y9048750D01*
X15240000Y7302500D02*
X9485000Y13057500D01*
X9485000Y15240000D02*
X9485000Y13057500D01*
X23653750Y9048750D02*
X24765000Y7937500D01*
X15200000Y9525000D02*
X15240000Y9525000D01*
X9485000Y15240000D02*
X9366250Y9048750D01*
D18*
G04 #@! TO.N,GND*
X21907500Y7302500D03*
X2857500Y7302500D03*
X40957500Y7302500D03*
X50323750Y7302500D03*
D21*
G04 #@! TA.AperFunction,Conductor*
G36*
X300000Y399999D02*
X319500Y340672D01*
X399999Y300000D01*
X3057362Y300000D01*
X3057362Y1787795D01*
X2880301Y1820893D01*
X2871433Y1823417D01*
X2691891Y1892971D01*
X2683661Y1897069D01*
X2519947Y1998436D01*
X2512603Y2003982D01*
X2370316Y2133695D01*
X2364104Y2140508D01*
X2248074Y2294157D01*
X2243226Y2301987D01*
X2157406Y2474337D01*
X2154076Y2482931D01*
X2101384Y2668126D01*
X2099692Y2677175D01*
X2081714Y2871195D01*
X2081500Y2875811D01*
X2081500Y3058982D01*
X2083066Y3063747D01*
X2097513Y3071046D01*
X2097513Y3275005D01*
X2092748Y3276571D01*
X2081500Y3298833D01*
X2081500Y3474189D01*
X2081714Y3478805D01*
X2099692Y3672825D01*
X2101384Y3681874D01*
X2154076Y3867069D01*
X2157406Y3875663D01*
X2243226Y4048013D01*
X2248074Y4055843D01*
X2364104Y4209492D01*
X2370316Y4216305D01*
X2512603Y4346018D01*
X2519947Y4351564D01*
X2683661Y4452931D01*
X2691891Y4457029D01*
X2871433Y4526583D01*
X2880301Y4529107D01*
X3063918Y4563431D01*
X3074995Y4541507D01*
X3074995Y4258732D01*
X2998430Y4250105D01*
X2830713Y4191419D01*
X2680261Y4096883D01*
X2554617Y3971239D01*
X2460081Y3820787D01*
X2401395Y3653070D01*
X2381500Y3476500D01*
X2381500Y3275005D01*
X2097513Y3275005D01*
X2097513Y3071046D01*
X2105328Y3074995D01*
X2381500Y3074995D01*
X2381500Y2873500D01*
X2401395Y2696930D01*
X2460081Y2529213D01*
X2554617Y2378761D01*
X2680261Y2253117D01*
X2830713Y2158581D01*
X2998430Y2099895D01*
X3074995Y2091268D01*
X3074995Y1800678D01*
X3073429Y1795913D01*
X3057362Y1787795D01*
X3057362Y300000D01*
X3097191Y300000D01*
X3097191Y24381863D01*
X3093574Y24382473D01*
X3091808Y24383885D01*
X3002623Y24488308D01*
X2998020Y24494644D01*
X2870944Y24702013D01*
X2867386Y24708995D01*
X2774315Y24933691D01*
X2771892Y24941147D01*
X2715115Y25177640D01*
X2713891Y25185364D01*
X2694808Y25427837D01*
X2694808Y25435663D01*
X2713891Y25678136D01*
X2715115Y25685860D01*
X2771892Y25922353D01*
X2774315Y25929809D01*
X2867386Y26154505D01*
X2870944Y26161487D01*
X2998020Y26368856D01*
X3002623Y26375192D01*
X3087581Y26474666D01*
X3099174Y26481716D01*
X3102826Y26481391D01*
X3104703Y26480118D01*
X3308045Y26276777D01*
X3298642Y26267374D01*
X3168667Y26081750D01*
X3072900Y25876376D01*
X3014250Y25657493D01*
X2994500Y25431750D01*
X3014250Y25206007D01*
X3072900Y24987124D01*
X3168667Y24781750D01*
X3298642Y24596126D01*
X3308045Y24586724D01*
X3109303Y24387982D01*
X3097191Y24381863D01*
X3097191Y300000D01*
X3286082Y300000D01*
X3286082Y1786569D01*
X3275005Y1808493D01*
X3275005Y2091268D01*
X3351570Y2099895D01*
X3519287Y2158581D01*
X3669739Y2253117D01*
X3795383Y2378761D01*
X3889919Y2529213D01*
X3948605Y2696930D01*
X3968500Y2873500D01*
X3968500Y3074995D01*
X3968500Y3275005D01*
X3968500Y3476500D01*
X3948605Y3653070D01*
X3889919Y3820787D01*
X3795383Y3971239D01*
X3669739Y4096883D01*
X3519287Y4191419D01*
X3351570Y4250105D01*
X3275005Y4258732D01*
X3275005Y4549322D01*
X3276571Y4554087D01*
X3292638Y4562205D01*
X3469699Y4529107D01*
X3478567Y4526583D01*
X3641362Y4463516D01*
X3641362Y14543784D01*
X3639333Y14544126D01*
X3635508Y14547377D01*
X3552547Y14657236D01*
X3547699Y14665066D01*
X3461345Y14838489D01*
X3458015Y14847083D01*
X3404995Y15033432D01*
X3403303Y15042481D01*
X3385427Y15235392D01*
X3385427Y15244608D01*
X3403303Y15437519D01*
X3404995Y15446568D01*
X3458015Y15632917D01*
X3461345Y15641511D01*
X3547699Y15814934D01*
X3552547Y15822764D01*
X3632501Y15928642D01*
X3643650Y15936374D01*
X3645711Y15936315D01*
X3649945Y15933626D01*
X3854633Y15728938D01*
X3837786Y15710228D01*
X3754164Y15565389D01*
X3702482Y15406329D01*
X3685000Y15240000D01*
X3702482Y15073671D01*
X3754164Y14914611D01*
X3837786Y14769772D01*
X3854633Y14751062D01*
X3653474Y14549903D01*
X3641362Y14543784D01*
X3641362Y4463516D01*
X3658109Y4457029D01*
X3666339Y4452931D01*
X3830053Y4351564D01*
X3837397Y4346018D01*
X3979684Y4216305D01*
X3985896Y4209492D01*
X4101926Y4055843D01*
X4106774Y4048013D01*
X4192594Y3875663D01*
X4195924Y3867069D01*
X4248616Y3681874D01*
X4250308Y3672825D01*
X4268286Y3478805D01*
X4268500Y3474189D01*
X4268500Y3291018D01*
X4266934Y3286253D01*
X4244672Y3275005D01*
X3968500Y3275005D01*
X3968500Y3074995D01*
X4252487Y3074995D01*
X4257252Y3073429D01*
X4268500Y3051167D01*
X4268500Y2875811D01*
X4268286Y2871195D01*
X4250308Y2677175D01*
X4248616Y2668126D01*
X4195924Y2482931D01*
X4192594Y2474337D01*
X4106774Y2301987D01*
X4101926Y2294157D01*
X3985896Y2140508D01*
X3979684Y2133695D01*
X3837397Y2003982D01*
X3830053Y1998436D01*
X3666339Y1897069D01*
X3658109Y1892971D01*
X3478567Y1823417D01*
X3469699Y1820893D01*
X3286082Y1786569D01*
X3286082Y300000D01*
X4388126Y300000D01*
X4388126Y14144692D01*
X4378961Y14145541D01*
X4188522Y14181141D01*
X4179654Y14183665D01*
X3998994Y14253652D01*
X3990764Y14257750D01*
X3826030Y14359749D01*
X3818686Y14365295D01*
X3795491Y14386440D01*
X3788819Y14398256D01*
X3789366Y14402752D01*
X3789802Y14403373D01*
X3997315Y14610886D01*
X3997315Y15869114D01*
X3794980Y16071449D01*
X3788861Y16083561D01*
X3789615Y16088026D01*
X3790079Y16088626D01*
X3818686Y16114705D01*
X3826030Y16120251D01*
X3990764Y16222250D01*
X3998994Y16226348D01*
X4179654Y16296335D01*
X4188522Y16298859D01*
X4290587Y16317938D01*
X4290587Y23832058D01*
X4048114Y23851141D01*
X4040390Y23852365D01*
X3803897Y23909142D01*
X3796441Y23911565D01*
X3571745Y24004636D01*
X3564763Y24008194D01*
X3357394Y24135270D01*
X3351058Y24139873D01*
X3251584Y24224831D01*
X3244534Y24236424D01*
X3244859Y24240076D01*
X3246132Y24241953D01*
X3449474Y24445295D01*
X3449474Y26418206D01*
X3250732Y26616947D01*
X3244613Y26629059D01*
X3245223Y26632676D01*
X3246635Y26634442D01*
X3351058Y26723627D01*
X3357394Y26728230D01*
X3564763Y26855306D01*
X3571745Y26858864D01*
X3796441Y26951935D01*
X3803897Y26954358D01*
X4040390Y27011135D01*
X4048114Y27012359D01*
X4290587Y27031442D01*
X4298413Y27031442D01*
X4540886Y27012359D01*
X4548610Y27011135D01*
X4785103Y26954358D01*
X4792559Y26951935D01*
X5017255Y26858864D01*
X5024237Y26855306D01*
X5231606Y26728230D01*
X5237942Y26723627D01*
X5337416Y26638669D01*
X5344466Y26627076D01*
X5344141Y26623424D01*
X5342868Y26621547D01*
X5139527Y26418206D01*
X5130124Y26427608D01*
X4944500Y26557583D01*
X4739126Y26653350D01*
X4520243Y26712000D01*
X4294500Y26731750D01*
X4068757Y26712000D01*
X3849874Y26653350D01*
X3644500Y26557583D01*
X3458876Y26427608D01*
X3449474Y26418206D01*
X3449474Y24445295D01*
X3458876Y24435892D01*
X3644500Y24305917D01*
X3849874Y24210150D01*
X4068757Y24151500D01*
X4294500Y24131750D01*
X4520243Y24151500D01*
X4739126Y24210150D01*
X4944500Y24305917D01*
X5130124Y24435892D01*
X5139527Y24445295D01*
X5338268Y24246553D01*
X5344387Y24234441D01*
X5343777Y24230824D01*
X5342365Y24229058D01*
X5237942Y24139873D01*
X5231606Y24135270D01*
X5024237Y24008194D01*
X5017255Y24004636D01*
X4792559Y23911565D01*
X4785103Y23909142D01*
X4548610Y23852365D01*
X4540886Y23851141D01*
X4298413Y23832058D01*
X4290587Y23832058D01*
X4290587Y16317938D01*
X4378961Y16334459D01*
X4388126Y16335308D01*
X4581874Y16335308D01*
X4591039Y16334459D01*
X4781478Y16298859D01*
X4790346Y16296335D01*
X4971006Y16226348D01*
X4979236Y16222250D01*
X5143970Y16120251D01*
X5151314Y16114705D01*
X5174509Y16093560D01*
X5181181Y16081744D01*
X5180634Y16077248D01*
X5180198Y16076627D01*
X4972685Y15869114D01*
X4885000Y15932820D01*
X4732214Y16000845D01*
X4568623Y16035618D01*
X4401377Y16035618D01*
X4237786Y16000845D01*
X4085000Y15932820D01*
X3997315Y15869114D01*
X3997315Y14610886D01*
X4085000Y14547180D01*
X4237786Y14479155D01*
X4401377Y14444382D01*
X4568623Y14444382D01*
X4732214Y14479155D01*
X4885000Y14547180D01*
X4972685Y14610886D01*
X5175020Y14408551D01*
X5181139Y14396439D01*
X5180385Y14391974D01*
X5179921Y14391374D01*
X5151314Y14365295D01*
X5143970Y14359749D01*
X4979236Y14257750D01*
X4971006Y14253652D01*
X4790346Y14183665D01*
X4781478Y14181141D01*
X4591039Y14145541D01*
X4581874Y14144692D01*
X4388126Y14144692D01*
X4388126Y300000D01*
X5710106Y300000D01*
X5710106Y1880482D01*
X5526071Y1898608D01*
X5516474Y1900517D01*
X5339510Y1954198D01*
X5330466Y1957945D01*
X5167376Y2045118D01*
X5159240Y2050555D01*
X5016292Y2167868D01*
X5009368Y2174792D01*
X4892055Y2317740D01*
X4886618Y2325876D01*
X4799445Y2488966D01*
X4795698Y2498010D01*
X4742017Y2674974D01*
X4740108Y2684571D01*
X4721741Y2871057D01*
X4721500Y2875950D01*
X4721500Y3474050D01*
X4721741Y3478943D01*
X4740108Y3665429D01*
X4742017Y3675026D01*
X4795698Y3851990D01*
X4799445Y3861034D01*
X4886618Y4024124D01*
X4892055Y4032260D01*
X5009368Y4175208D01*
X5016292Y4182132D01*
X5159240Y4299445D01*
X5167376Y4304882D01*
X5330466Y4392055D01*
X5339510Y4395802D01*
X5516474Y4449483D01*
X5526071Y4451392D01*
X5710106Y4469518D01*
X5719894Y4469518D01*
X5903929Y4451392D01*
X5913526Y4449483D01*
X6090490Y4395802D01*
X6099534Y4392055D01*
X6262624Y4304882D01*
X6270760Y4299445D01*
X6413708Y4182132D01*
X6420632Y4175208D01*
X6537945Y4032260D01*
X6543382Y4024124D01*
X6630555Y3861034D01*
X6634302Y3851990D01*
X6687983Y3675026D01*
X6689892Y3665429D01*
X6708259Y3478943D01*
X6708500Y3474050D01*
X6708500Y2875950D01*
X6708259Y2871057D01*
X6689892Y2684571D01*
X6687983Y2674974D01*
X6634302Y2498010D01*
X6630555Y2488966D01*
X6543382Y2325876D01*
X6537945Y2317740D01*
X6420632Y2174792D01*
X6413708Y2167868D01*
X6270760Y2050555D01*
X6262624Y2045118D01*
X6099534Y1957945D01*
X6090490Y1954198D01*
X5913526Y1900517D01*
X5903929Y1898608D01*
X5719894Y1880482D01*
X5710106Y1880482D01*
X5710106Y300000D01*
X7466414Y300000D01*
X7466414Y1880000D01*
X7456683Y1880958D01*
X7394623Y1893303D01*
X7376773Y1900696D01*
X7328267Y1933108D01*
X7314608Y1946767D01*
X7282196Y1995273D01*
X7274803Y2013123D01*
X7262458Y2075183D01*
X7261500Y2084914D01*
X7261500Y4265086D01*
X7262458Y4274817D01*
X7274803Y4336877D01*
X7282196Y4354727D01*
X7314608Y4403233D01*
X7328267Y4416892D01*
X7376773Y4449304D01*
X7394623Y4456697D01*
X7456683Y4469042D01*
X7466414Y4470000D01*
X9043586Y4470000D01*
X9053317Y4469042D01*
X9115377Y4456697D01*
X9133227Y4449304D01*
X9181733Y4416892D01*
X9195392Y4403233D01*
X9227804Y4354727D01*
X9235197Y4336877D01*
X9247542Y4274817D01*
X9248500Y4265086D01*
X9248500Y2084914D01*
X9247542Y2075183D01*
X9235197Y2013123D01*
X9227804Y1995273D01*
X9195392Y1946767D01*
X9181733Y1933108D01*
X9133227Y1900696D01*
X9115377Y1893303D01*
X9053317Y1880958D01*
X9043586Y1880000D01*
X7466414Y1880000D01*
X7466414Y300000D01*
X12582362Y300000D01*
X12582362Y1787795D01*
X12405301Y1820893D01*
X12396433Y1823417D01*
X12216891Y1892971D01*
X12208661Y1897069D01*
X12044947Y1998436D01*
X12037603Y2003982D01*
X11895316Y2133695D01*
X11889104Y2140508D01*
X11773074Y2294157D01*
X11768226Y2301987D01*
X11682406Y2474337D01*
X11679076Y2482931D01*
X11626384Y2668126D01*
X11624692Y2677175D01*
X11606714Y2871195D01*
X11606500Y2875811D01*
X11606500Y3058982D01*
X11608066Y3063747D01*
X11622513Y3071046D01*
X11622513Y3275005D01*
X11617748Y3276571D01*
X11606500Y3298833D01*
X11606500Y3474189D01*
X11606714Y3478805D01*
X11624692Y3672825D01*
X11626384Y3681874D01*
X11679076Y3867069D01*
X11682406Y3875663D01*
X11768226Y4048013D01*
X11773074Y4055843D01*
X11889104Y4209492D01*
X11895316Y4216305D01*
X12037603Y4346018D01*
X12044947Y4351564D01*
X12208661Y4452931D01*
X12216891Y4457029D01*
X12396433Y4526583D01*
X12405301Y4529107D01*
X12588918Y4563431D01*
X12599995Y4541507D01*
X12599995Y4258732D01*
X12523430Y4250105D01*
X12355713Y4191419D01*
X12205261Y4096883D01*
X12079617Y3971239D01*
X11985081Y3820787D01*
X11926395Y3653070D01*
X11906500Y3476500D01*
X11906500Y3275005D01*
X11622513Y3275005D01*
X11622513Y3071046D01*
X11630328Y3074995D01*
X11906500Y3074995D01*
X11906500Y2873500D01*
X11926395Y2696930D01*
X11985081Y2529213D01*
X12079617Y2378761D01*
X12205261Y2253117D01*
X12355713Y2158581D01*
X12523430Y2099895D01*
X12599995Y2091268D01*
X12599995Y1800678D01*
X12598429Y1795913D01*
X12582362Y1787795D01*
X12582362Y300000D01*
X12811082Y300000D01*
X12811082Y1786569D01*
X12800005Y1808493D01*
X12800005Y2091268D01*
X12876570Y2099895D01*
X13044287Y2158581D01*
X13194739Y2253117D01*
X13320383Y2378761D01*
X13414919Y2529213D01*
X13473605Y2696930D01*
X13493500Y2873500D01*
X13493500Y3074995D01*
X13493500Y3275005D01*
X13493500Y3476500D01*
X13473605Y3653070D01*
X13414919Y3820787D01*
X13320383Y3971239D01*
X13194739Y4096883D01*
X13044287Y4191419D01*
X12876570Y4250105D01*
X12800005Y4258732D01*
X12800005Y4549322D01*
X12801571Y4554087D01*
X12817638Y4562205D01*
X12994699Y4529107D01*
X13003567Y4526583D01*
X13183109Y4457029D01*
X13191339Y4452931D01*
X13355053Y4351564D01*
X13362397Y4346018D01*
X13504684Y4216305D01*
X13510896Y4209492D01*
X13626926Y4055843D01*
X13631774Y4048013D01*
X13717594Y3875663D01*
X13720924Y3867069D01*
X13773616Y3681874D01*
X13775308Y3672825D01*
X13793286Y3478805D01*
X13793500Y3474189D01*
X13793500Y3291018D01*
X13791934Y3286253D01*
X13769672Y3275005D01*
X13493500Y3275005D01*
X13493500Y3074995D01*
X13777487Y3074995D01*
X13782252Y3073429D01*
X13793500Y3051167D01*
X13793500Y2875811D01*
X13793286Y2871195D01*
X13775308Y2677175D01*
X13773616Y2668126D01*
X13720924Y2482931D01*
X13717594Y2474337D01*
X13631774Y2301987D01*
X13626926Y2294157D01*
X13510896Y2140508D01*
X13504684Y2133695D01*
X13362397Y2003982D01*
X13355053Y1998436D01*
X13191339Y1897069D01*
X13183109Y1892971D01*
X13003567Y1823417D01*
X12994699Y1820893D01*
X12811082Y1786569D01*
X12811082Y300000D01*
X15235106Y300000D01*
X15235106Y1880482D01*
X15051071Y1898608D01*
X15041474Y1900517D01*
X14864510Y1954198D01*
X14855466Y1957945D01*
X14692376Y2045118D01*
X14684240Y2050555D01*
X14541292Y2167868D01*
X14534368Y2174792D01*
X14417055Y2317740D01*
X14411618Y2325876D01*
X14324445Y2488966D01*
X14320698Y2498010D01*
X14267017Y2674974D01*
X14265108Y2684571D01*
X14246741Y2871057D01*
X14246500Y2875950D01*
X14246500Y3474050D01*
X14246741Y3478943D01*
X14265108Y3665429D01*
X14267017Y3675026D01*
X14320698Y3851990D01*
X14324445Y3861034D01*
X14411618Y4024124D01*
X14417055Y4032260D01*
X14534368Y4175208D01*
X14541292Y4182132D01*
X14684240Y4299445D01*
X14692376Y4304882D01*
X14855466Y4392055D01*
X14864510Y4395802D01*
X15041474Y4449483D01*
X15051071Y4451392D01*
X15233506Y4469360D01*
X15233506Y6722355D01*
X15096120Y6740442D01*
X15083573Y6743804D01*
X14955553Y6796832D01*
X14944301Y6803328D01*
X14831769Y6889678D01*
X14826857Y6893985D01*
X10164818Y11556024D01*
X10109079Y11584186D01*
X10047501Y11573788D01*
X10004100Y11528884D01*
X9994127Y11487232D01*
X9947206Y9040880D01*
X9946653Y9034371D01*
X9936779Y8969069D01*
X9936511Y8967171D01*
X9928310Y8904879D01*
X9926917Y8899681D01*
X9926568Y8898011D01*
X9925462Y8894178D01*
X9924946Y8892323D01*
X9923902Y8888424D01*
X9923333Y8886800D01*
X9921842Y8881637D01*
X9896721Y8824132D01*
X9895970Y8822369D01*
X9871916Y8764299D01*
X9869227Y8759641D01*
X9868472Y8758146D01*
X9866420Y8754745D01*
X9865446Y8753095D01*
X9863395Y8749543D01*
X9862420Y8748114D01*
X9859654Y8743528D01*
X9820501Y8694479D01*
X9819320Y8692970D01*
X9779072Y8640519D01*
X9774765Y8635607D01*
X8191893Y7052735D01*
X8186981Y7048428D01*
X8074449Y6962078D01*
X8063197Y6955582D01*
X7935177Y6902554D01*
X7922630Y6899192D01*
X7781989Y6880676D01*
X7775480Y6880250D01*
X5718270Y6880250D01*
X5711761Y6880676D01*
X5571120Y6899192D01*
X5558573Y6902554D01*
X5430553Y6955582D01*
X5419301Y6962078D01*
X5309371Y7046431D01*
X5300181Y7055621D01*
X5215828Y7165551D01*
X5209332Y7176803D01*
X5156304Y7304823D01*
X5152942Y7317370D01*
X5134855Y7454756D01*
X5134855Y7467744D01*
X5152942Y7605130D01*
X5156304Y7617677D01*
X5209332Y7745697D01*
X5215828Y7756949D01*
X5300181Y7866879D01*
X5309371Y7876069D01*
X5326350Y7889097D01*
X5326350Y14543626D01*
X5324289Y14543685D01*
X5320055Y14546374D01*
X5115367Y14751062D01*
X5132214Y14769772D01*
X5215836Y14914611D01*
X5267518Y15073671D01*
X5285000Y15240000D01*
X5267518Y15406329D01*
X5215836Y15565389D01*
X5132214Y15710228D01*
X5115367Y15728938D01*
X5316526Y15930097D01*
X5328638Y15936216D01*
X5330667Y15935874D01*
X5334492Y15932623D01*
X5417453Y15822764D01*
X5422301Y15814934D01*
X5489826Y15679324D01*
X5489826Y24381784D01*
X5486174Y24382109D01*
X5484297Y24383382D01*
X5280956Y24586724D01*
X5290358Y24596126D01*
X5420333Y24781750D01*
X5516100Y24987124D01*
X5574750Y25206007D01*
X5594500Y25431750D01*
X5574750Y25657493D01*
X5516100Y25876376D01*
X5420333Y26081750D01*
X5290358Y26267374D01*
X5280956Y26276777D01*
X5479697Y26475518D01*
X5491809Y26481637D01*
X5495426Y26481027D01*
X5497192Y26479615D01*
X5586377Y26375192D01*
X5590980Y26368856D01*
X5718056Y26161487D01*
X5721614Y26154505D01*
X5814685Y25929809D01*
X5817108Y25922353D01*
X5873885Y25685860D01*
X5875109Y25678136D01*
X5894192Y25435663D01*
X5894192Y25427837D01*
X5875109Y25185364D01*
X5873885Y25177640D01*
X5817108Y24941147D01*
X5814685Y24933691D01*
X5721614Y24708995D01*
X5718056Y24702013D01*
X5590980Y24494644D01*
X5586377Y24488308D01*
X5501419Y24388834D01*
X5489826Y24381784D01*
X5489826Y15679324D01*
X5508655Y15641511D01*
X5511985Y15632917D01*
X5565005Y15446568D01*
X5566697Y15437519D01*
X5584573Y15244608D01*
X5584573Y15235392D01*
X5566697Y15042481D01*
X5565005Y15033432D01*
X5511985Y14847083D01*
X5508655Y14838489D01*
X5422301Y14665066D01*
X5417453Y14657236D01*
X5337499Y14551358D01*
X5326350Y14543626D01*
X5326350Y7889097D01*
X5419301Y7960422D01*
X5430553Y7966918D01*
X5558573Y8019946D01*
X5571120Y8023308D01*
X5711761Y8041824D01*
X5718270Y8042250D01*
X7496671Y8042250D01*
X7567381Y8071539D01*
X8761349Y9265507D01*
X8790620Y9334299D01*
X8882758Y14138083D01*
X8864399Y14197774D01*
X8814207Y14234932D01*
X8782777Y14240000D01*
X8689914Y14240000D01*
X8680183Y14240958D01*
X8618123Y14253303D01*
X8600273Y14260696D01*
X8551767Y14293108D01*
X8538108Y14306767D01*
X8505696Y14355273D01*
X8498303Y14373123D01*
X8485958Y14435183D01*
X8485000Y14444914D01*
X8485000Y16035086D01*
X8485958Y16044817D01*
X8498303Y16106877D01*
X8505696Y16124727D01*
X8538108Y16173233D01*
X8551767Y16186892D01*
X8600273Y16219304D01*
X8618123Y16226697D01*
X8680183Y16239042D01*
X8689914Y16240000D01*
X8917801Y16240000D01*
X8977128Y16259500D01*
X9017788Y16341556D01*
X8901093Y23833308D01*
X8880671Y23892325D01*
X8801106Y23931750D01*
X7999414Y23931750D01*
X7989683Y23932708D01*
X7927623Y23945053D01*
X7909773Y23952446D01*
X7861267Y23984858D01*
X7847608Y23998517D01*
X7815196Y24047023D01*
X7807803Y24064873D01*
X7795458Y24126933D01*
X7794500Y24136664D01*
X7794500Y26726836D01*
X7795458Y26736567D01*
X7807803Y26798627D01*
X7815196Y26816477D01*
X7847608Y26864983D01*
X7861267Y26878642D01*
X7909773Y26911054D01*
X7927623Y26918447D01*
X7989683Y26930792D01*
X7999414Y26931750D01*
X10589586Y26931750D01*
X10599317Y26930792D01*
X10661377Y26918447D01*
X10679227Y26911054D01*
X10727733Y26878642D01*
X10741392Y26864983D01*
X10773804Y26816477D01*
X10781197Y26798627D01*
X10793542Y26736567D01*
X10794500Y26726836D01*
X10794500Y24136664D01*
X10793542Y24126933D01*
X10781197Y24064873D01*
X10773804Y24047023D01*
X10741392Y23998517D01*
X10727733Y23984858D01*
X10679227Y23952446D01*
X10661377Y23945053D01*
X10599317Y23932708D01*
X10589586Y23931750D01*
X9901238Y23931750D01*
X9841911Y23912250D01*
X9801251Y23830194D01*
X9917945Y16338442D01*
X9938367Y16279425D01*
X10017932Y16240000D01*
X10280086Y16240000D01*
X10289817Y16239042D01*
X10351877Y16226697D01*
X10369727Y16219304D01*
X10418233Y16186892D01*
X10431892Y16173233D01*
X10464304Y16124727D01*
X10471697Y16106877D01*
X10484042Y16044817D01*
X10485000Y16035086D01*
X10485000Y15103079D01*
X10514289Y15032369D01*
X15495945Y10050713D01*
X15519400Y10035040D01*
X15518768Y10033946D01*
X15535702Y10024169D01*
X15648231Y9937822D01*
X15653143Y9933515D01*
X15927619Y9659039D01*
X15998329Y9629750D01*
X17551512Y9629750D01*
X17551512Y13682156D01*
X17542347Y13683005D01*
X17342833Y13720301D01*
X17333976Y13722822D01*
X17144719Y13796139D01*
X17136467Y13800248D01*
X16963898Y13907098D01*
X16956554Y13912644D01*
X16806562Y14049381D01*
X16800350Y14056194D01*
X16678036Y14218164D01*
X16673188Y14225994D01*
X16582721Y14407677D01*
X16579391Y14416271D01*
X16523846Y14611494D01*
X16522154Y14620543D01*
X16503427Y14822642D01*
X16503427Y14831858D01*
X16522154Y15033957D01*
X16523846Y15043006D01*
X16579391Y15238229D01*
X16582721Y15246823D01*
X16673188Y15428506D01*
X16678036Y15436336D01*
X16800350Y15598306D01*
X16806562Y15605119D01*
X16956554Y15741856D01*
X16963898Y15747402D01*
X17136467Y15854252D01*
X17144719Y15858361D01*
X17333976Y15931678D01*
X17342833Y15934199D01*
X17542347Y15971495D01*
X17551512Y15972344D01*
X17551512Y28922156D01*
X17542347Y28923005D01*
X17342833Y28960301D01*
X17333976Y28962822D01*
X17144719Y29036139D01*
X17136467Y29040248D01*
X16963898Y29147098D01*
X16956554Y29152644D01*
X16806562Y29289381D01*
X16800350Y29296194D01*
X16678036Y29458164D01*
X16673188Y29465994D01*
X16582721Y29647677D01*
X16579391Y29656271D01*
X16523846Y29851494D01*
X16522154Y29860543D01*
X16503427Y30062642D01*
X16503427Y30071858D01*
X16522154Y30273957D01*
X16523846Y30283006D01*
X16579391Y30478229D01*
X16582721Y30486823D01*
X16673188Y30668506D01*
X16678036Y30676336D01*
X16800350Y30838306D01*
X16806562Y30845119D01*
X16956554Y30981856D01*
X16963898Y30987402D01*
X17136467Y31094252D01*
X17144719Y31098361D01*
X17333976Y31171678D01*
X17342833Y31174199D01*
X17542347Y31211495D01*
X17551512Y31212344D01*
X17754488Y31212344D01*
X17763653Y31211495D01*
X17963167Y31174199D01*
X17972024Y31171678D01*
X18161281Y31098361D01*
X18169533Y31094252D01*
X18342102Y30987402D01*
X18349446Y30981856D01*
X18499438Y30845119D01*
X18505650Y30838306D01*
X18627964Y30676336D01*
X18632812Y30668506D01*
X18723279Y30486823D01*
X18726609Y30478229D01*
X18782154Y30283006D01*
X18783846Y30273957D01*
X18802573Y30071858D01*
X18802573Y30062642D01*
X18783846Y29860543D01*
X18782154Y29851494D01*
X18726609Y29656271D01*
X18723279Y29647677D01*
X18632812Y29465994D01*
X18627964Y29458164D01*
X18505650Y29296194D01*
X18499438Y29289381D01*
X18349446Y29152644D01*
X18342102Y29147098D01*
X18169533Y29040248D01*
X18161281Y29036139D01*
X17972024Y28962822D01*
X17963167Y28960301D01*
X17763653Y28923005D01*
X17754488Y28922156D01*
X17551512Y28922156D01*
X17551512Y15972344D01*
X17754488Y15972344D01*
X17763653Y15971495D01*
X17963167Y15934199D01*
X17972024Y15931678D01*
X18161281Y15858361D01*
X18169533Y15854252D01*
X18342102Y15747402D01*
X18349446Y15741856D01*
X18499438Y15605119D01*
X18505650Y15598306D01*
X18627964Y15436336D01*
X18632812Y15428506D01*
X18723279Y15246823D01*
X18726609Y15238229D01*
X18782154Y15043006D01*
X18783846Y15033957D01*
X18802573Y14831858D01*
X18802573Y14822642D01*
X18783846Y14620543D01*
X18782154Y14611494D01*
X18726609Y14416271D01*
X18723279Y14407677D01*
X18632812Y14225994D01*
X18627964Y14218164D01*
X18505650Y14056194D01*
X18499438Y14049381D01*
X18349446Y13912644D01*
X18342102Y13907098D01*
X18169533Y13800248D01*
X18161281Y13796139D01*
X17972024Y13722822D01*
X17963167Y13720301D01*
X17763653Y13683005D01*
X17754488Y13682156D01*
X17551512Y13682156D01*
X17551512Y9629750D01*
X20188392Y9629750D01*
X20188392Y13777677D01*
X20004668Y13794701D01*
X19995619Y13796393D01*
X19818145Y13846888D01*
X19809551Y13850218D01*
X19644387Y13932460D01*
X19636557Y13937307D01*
X19489314Y14048501D01*
X19482501Y14054713D01*
X19358196Y14191068D01*
X19352650Y14198412D01*
X19255509Y14355301D01*
X19251411Y14363531D01*
X19184755Y14535587D01*
X19182232Y14544455D01*
X19148328Y14725824D01*
X19147479Y14734989D01*
X19147479Y14919511D01*
X19148328Y14928676D01*
X19182232Y15110045D01*
X19184755Y15118913D01*
X19251411Y15290969D01*
X19255509Y15299199D01*
X19352650Y15456088D01*
X19358196Y15463432D01*
X19482501Y15599787D01*
X19489314Y15605999D01*
X19636557Y15717193D01*
X19644387Y15722040D01*
X19809551Y15804282D01*
X19818145Y15807612D01*
X19995619Y15858107D01*
X20004668Y15859799D01*
X20188392Y15876823D01*
X20188392Y29017677D01*
X20004668Y29034701D01*
X19995619Y29036393D01*
X19818145Y29086888D01*
X19809551Y29090218D01*
X19644387Y29172460D01*
X19636557Y29177307D01*
X19489314Y29288501D01*
X19482501Y29294713D01*
X19358196Y29431068D01*
X19352650Y29438412D01*
X19255509Y29595301D01*
X19251411Y29603531D01*
X19184755Y29775587D01*
X19182232Y29784455D01*
X19148328Y29965824D01*
X19147479Y29974989D01*
X19147479Y30159511D01*
X19148328Y30168676D01*
X19182232Y30350045D01*
X19184755Y30358913D01*
X19251411Y30530969D01*
X19255509Y30539199D01*
X19352650Y30696088D01*
X19358196Y30703432D01*
X19482501Y30839787D01*
X19489314Y30845999D01*
X19636557Y30957193D01*
X19644387Y30962040D01*
X19809551Y31044282D01*
X19818145Y31047612D01*
X19995619Y31098107D01*
X20004668Y31099799D01*
X20188392Y31116823D01*
X20197608Y31116823D01*
X20381332Y31099799D01*
X20390381Y31098107D01*
X20567855Y31047612D01*
X20576449Y31044282D01*
X20741613Y30962040D01*
X20749443Y30957193D01*
X20896686Y30845999D01*
X20903499Y30839787D01*
X21027804Y30703432D01*
X21033350Y30696088D01*
X21130491Y30539199D01*
X21134589Y30530969D01*
X21201245Y30358913D01*
X21203768Y30350045D01*
X21237672Y30168676D01*
X21238521Y30159511D01*
X21238521Y29974989D01*
X21237672Y29965824D01*
X21203768Y29784455D01*
X21201245Y29775587D01*
X21134589Y29603531D01*
X21130491Y29595301D01*
X21033350Y29438412D01*
X21027804Y29431068D01*
X20903499Y29294713D01*
X20896686Y29288501D01*
X20749443Y29177307D01*
X20741613Y29172460D01*
X20576449Y29090218D01*
X20567855Y29086888D01*
X20390381Y29036393D01*
X20381332Y29034701D01*
X20197608Y29017677D01*
X20188392Y29017677D01*
X20188392Y15876823D01*
X20197608Y15876823D01*
X20381332Y15859799D01*
X20390381Y15858107D01*
X20567855Y15807612D01*
X20576449Y15804282D01*
X20741613Y15722040D01*
X20749443Y15717193D01*
X20896686Y15605999D01*
X20903499Y15599787D01*
X21027804Y15463432D01*
X21033350Y15456088D01*
X21130491Y15299199D01*
X21134589Y15290969D01*
X21201245Y15118913D01*
X21203768Y15110045D01*
X21237672Y14928676D01*
X21238521Y14919511D01*
X21238521Y14734989D01*
X21237672Y14725824D01*
X21203768Y14544455D01*
X21201245Y14535587D01*
X21134589Y14363531D01*
X21130491Y14355301D01*
X21033350Y14198412D01*
X21027804Y14191068D01*
X20903499Y14054713D01*
X20896686Y14048501D01*
X20749443Y13937307D01*
X20741613Y13932460D01*
X20576449Y13850218D01*
X20567855Y13846888D01*
X20390381Y13796393D01*
X20381332Y13794701D01*
X20197608Y13777677D01*
X20188392Y13777677D01*
X20188392Y9629750D01*
X22728392Y9629750D01*
X22728392Y13777677D01*
X22544668Y13794701D01*
X22535619Y13796393D01*
X22358145Y13846888D01*
X22349551Y13850218D01*
X22184387Y13932460D01*
X22176557Y13937307D01*
X22029314Y14048501D01*
X22022501Y14054713D01*
X21898196Y14191068D01*
X21892650Y14198412D01*
X21795509Y14355301D01*
X21791411Y14363531D01*
X21724755Y14535587D01*
X21722232Y14544455D01*
X21688328Y14725824D01*
X21687479Y14734989D01*
X21687479Y14919511D01*
X21688328Y14928676D01*
X21722232Y15110045D01*
X21724755Y15118913D01*
X21791411Y15290969D01*
X21795509Y15299199D01*
X21854197Y15393983D01*
X21854197Y29335869D01*
X21849732Y29336623D01*
X21849131Y29337087D01*
X21818394Y29370804D01*
X21812848Y29378148D01*
X21705998Y29550717D01*
X21701889Y29558969D01*
X21628572Y29748226D01*
X21626051Y29757083D01*
X21588755Y29956597D01*
X21587906Y29965762D01*
X21587906Y30168738D01*
X21588755Y30177903D01*
X21626051Y30377417D01*
X21628572Y30386274D01*
X21701889Y30575531D01*
X21705998Y30583783D01*
X21812848Y30756352D01*
X21818394Y30763696D01*
X21844198Y30792001D01*
X21856013Y30798672D01*
X21860512Y30798125D01*
X21861129Y30797692D01*
X22068286Y30590535D01*
X21996878Y30492250D01*
X21924602Y30329914D01*
X21887656Y30156099D01*
X21887656Y29978401D01*
X21924602Y29804586D01*
X21996878Y29642250D01*
X22068286Y29543965D01*
X21866309Y29341988D01*
X21854197Y29335869D01*
X21854197Y15393983D01*
X21892650Y15456088D01*
X21898196Y15463432D01*
X22022501Y15599787D01*
X22029314Y15605999D01*
X22176557Y15717193D01*
X22184387Y15722040D01*
X22349551Y15804282D01*
X22358145Y15807612D01*
X22535619Y15858107D01*
X22544668Y15859799D01*
X22728392Y15876823D01*
X22728392Y28917677D01*
X22526293Y28936404D01*
X22517244Y28938096D01*
X22322021Y28993641D01*
X22313427Y28996971D01*
X22131744Y29087438D01*
X22123914Y29092286D01*
X22008812Y29179207D01*
X22001080Y29190354D01*
X22001139Y29192415D01*
X22003829Y29196650D01*
X22208852Y29401673D01*
X22208852Y30732827D01*
X22007358Y30934321D01*
X22001239Y30946433D01*
X22001581Y30948462D01*
X22004832Y30952287D01*
X22123914Y31042214D01*
X22131744Y31047062D01*
X22313427Y31137529D01*
X22322021Y31140859D01*
X22517244Y31196404D01*
X22526293Y31198096D01*
X22728392Y31216823D01*
X22737608Y31216823D01*
X22939707Y31198096D01*
X22948756Y31196404D01*
X23143979Y31140859D01*
X23152573Y31137529D01*
X23334256Y31047062D01*
X23342086Y31042214D01*
X23457188Y30955293D01*
X23464920Y30944146D01*
X23464861Y30942085D01*
X23462171Y30937850D01*
X23257148Y30732827D01*
X23232617Y30754914D01*
X23078726Y30843764D01*
X22909725Y30898675D01*
X22733000Y30917250D01*
X22556275Y30898675D01*
X22387274Y30843764D01*
X22233383Y30754914D01*
X22208852Y30732827D01*
X22208852Y29401673D01*
X22233383Y29379586D01*
X22387274Y29290736D01*
X22556275Y29235825D01*
X22733000Y29217250D01*
X22909725Y29235825D01*
X23078726Y29290736D01*
X23232617Y29379586D01*
X23257148Y29401673D01*
X23458642Y29200179D01*
X23464761Y29188067D01*
X23464419Y29186038D01*
X23461168Y29182213D01*
X23342086Y29092286D01*
X23334256Y29087438D01*
X23152573Y28996971D01*
X23143979Y28993641D01*
X22948756Y28938096D01*
X22939707Y28936404D01*
X22737608Y28917677D01*
X22728392Y28917677D01*
X22728392Y15876823D01*
X22737608Y15876823D01*
X22921332Y15859799D01*
X22930381Y15858107D01*
X23107855Y15807612D01*
X23116449Y15804282D01*
X23281613Y15722040D01*
X23289443Y15717193D01*
X23436686Y15605999D01*
X23443499Y15599787D01*
X23567804Y15463432D01*
X23573350Y15456088D01*
X23609987Y15396916D01*
X23609987Y29335828D01*
X23605488Y29336375D01*
X23604871Y29336808D01*
X23397714Y29543965D01*
X23469122Y29642250D01*
X23541398Y29804586D01*
X23578344Y29978401D01*
X23578344Y30156099D01*
X23541398Y30329914D01*
X23469122Y30492250D01*
X23397714Y30590535D01*
X23599691Y30792512D01*
X23611803Y30798631D01*
X23616268Y30797877D01*
X23616869Y30797413D01*
X23647606Y30763696D01*
X23653152Y30756352D01*
X23760002Y30583783D01*
X23764111Y30575531D01*
X23837428Y30386274D01*
X23839949Y30377417D01*
X23877245Y30177903D01*
X23878094Y30168738D01*
X23878094Y29965762D01*
X23877245Y29956597D01*
X23839949Y29757083D01*
X23837428Y29748226D01*
X23764111Y29558969D01*
X23760002Y29550717D01*
X23653152Y29378148D01*
X23647606Y29370804D01*
X23621802Y29342499D01*
X23609987Y29335828D01*
X23609987Y15396916D01*
X23670491Y15299199D01*
X23674589Y15290969D01*
X23741245Y15118913D01*
X23743768Y15110045D01*
X23777672Y14928676D01*
X23778521Y14919511D01*
X23778521Y14734989D01*
X23777672Y14725824D01*
X23743768Y14544455D01*
X23741245Y14535587D01*
X23674589Y14363531D01*
X23670491Y14355301D01*
X23573350Y14198412D01*
X23567804Y14191068D01*
X23443499Y14054713D01*
X23436686Y14048501D01*
X23289443Y13937307D01*
X23281613Y13932460D01*
X23116449Y13850218D01*
X23107855Y13846888D01*
X22930381Y13796393D01*
X22921332Y13794701D01*
X22737608Y13777677D01*
X22728392Y13777677D01*
X22728392Y9629750D01*
X25268392Y9629750D01*
X25268392Y13777677D01*
X25084668Y13794701D01*
X25075619Y13796393D01*
X24898145Y13846888D01*
X24889551Y13850218D01*
X24724387Y13932460D01*
X24716557Y13937307D01*
X24569314Y14048501D01*
X24562501Y14054713D01*
X24438196Y14191068D01*
X24432650Y14198412D01*
X24335509Y14355301D01*
X24331411Y14363531D01*
X24264755Y14535587D01*
X24262232Y14544455D01*
X24228328Y14725824D01*
X24227479Y14734989D01*
X24227479Y14919511D01*
X24228328Y14928676D01*
X24262232Y15110045D01*
X24264755Y15118913D01*
X24331411Y15290969D01*
X24335509Y15299199D01*
X24432650Y15456088D01*
X24438196Y15463432D01*
X24562501Y15599787D01*
X24569314Y15605999D01*
X24716557Y15717193D01*
X24724387Y15722040D01*
X24889551Y15804282D01*
X24898145Y15807612D01*
X25075619Y15858107D01*
X25084668Y15859799D01*
X25268392Y15876823D01*
X25268392Y29017677D01*
X25084668Y29034701D01*
X25075619Y29036393D01*
X24898145Y29086888D01*
X24889551Y29090218D01*
X24724387Y29172460D01*
X24716557Y29177307D01*
X24569314Y29288501D01*
X24562501Y29294713D01*
X24438196Y29431068D01*
X24432650Y29438412D01*
X24335509Y29595301D01*
X24331411Y29603531D01*
X24264755Y29775587D01*
X24262232Y29784455D01*
X24228328Y29965824D01*
X24227479Y29974989D01*
X24227479Y30159511D01*
X24228328Y30168676D01*
X24262232Y30350045D01*
X24264755Y30358913D01*
X24331411Y30530969D01*
X24335509Y30539199D01*
X24432650Y30696088D01*
X24438196Y30703432D01*
X24562501Y30839787D01*
X24569314Y30845999D01*
X24716557Y30957193D01*
X24724387Y30962040D01*
X24889551Y31044282D01*
X24898145Y31047612D01*
X25075619Y31098107D01*
X25084668Y31099799D01*
X25268392Y31116823D01*
X25277608Y31116823D01*
X25461332Y31099799D01*
X25470381Y31098107D01*
X25647855Y31047612D01*
X25656449Y31044282D01*
X25821613Y30962040D01*
X25829443Y30957193D01*
X25976686Y30845999D01*
X25983499Y30839787D01*
X26107804Y30703432D01*
X26113350Y30696088D01*
X26210491Y30539199D01*
X26214589Y30530969D01*
X26281245Y30358913D01*
X26283768Y30350045D01*
X26317672Y30168676D01*
X26318521Y30159511D01*
X26318521Y29974989D01*
X26317672Y29965824D01*
X26283768Y29784455D01*
X26281245Y29775587D01*
X26214589Y29603531D01*
X26210491Y29595301D01*
X26113350Y29438412D01*
X26107804Y29431068D01*
X25983499Y29294713D01*
X25976686Y29288501D01*
X25829443Y29177307D01*
X25821613Y29172460D01*
X25656449Y29090218D01*
X25647855Y29086888D01*
X25470381Y29036393D01*
X25461332Y29034701D01*
X25277608Y29017677D01*
X25268392Y29017677D01*
X25268392Y15876823D01*
X25277608Y15876823D01*
X25461332Y15859799D01*
X25470381Y15858107D01*
X25647855Y15807612D01*
X25656449Y15804282D01*
X25821613Y15722040D01*
X25829443Y15717193D01*
X25976686Y15605999D01*
X25983499Y15599787D01*
X26107804Y15463432D01*
X26113350Y15456088D01*
X26210491Y15299199D01*
X26214589Y15290969D01*
X26281245Y15118913D01*
X26283768Y15110045D01*
X26317672Y14928676D01*
X26318521Y14919511D01*
X26318521Y14734989D01*
X26317672Y14725824D01*
X26283768Y14544455D01*
X26281245Y14535587D01*
X26214589Y14363531D01*
X26210491Y14355301D01*
X26113350Y14198412D01*
X26107804Y14191068D01*
X25983499Y14054713D01*
X25976686Y14048501D01*
X25829443Y13937307D01*
X25821613Y13932460D01*
X25656449Y13850218D01*
X25647855Y13846888D01*
X25470381Y13796393D01*
X25461332Y13794701D01*
X25277608Y13777677D01*
X25268392Y13777677D01*
X25268392Y9629750D01*
X26934197Y9629750D01*
X26934197Y14095869D01*
X26929732Y14096623D01*
X26929131Y14097087D01*
X26898394Y14130804D01*
X26892848Y14138148D01*
X26785998Y14310717D01*
X26781889Y14318969D01*
X26708572Y14508226D01*
X26706051Y14517083D01*
X26668755Y14716597D01*
X26667906Y14725762D01*
X26667906Y14928738D01*
X26668755Y14937903D01*
X26706051Y15137417D01*
X26708572Y15146274D01*
X26781889Y15335531D01*
X26785998Y15343783D01*
X26892848Y15516352D01*
X26898394Y15523696D01*
X26924198Y15552001D01*
X26936013Y15558672D01*
X26940512Y15558125D01*
X26941129Y15557692D01*
X27148286Y15350535D01*
X27076878Y15252250D01*
X27004602Y15089914D01*
X26967656Y14916099D01*
X26967656Y14738401D01*
X27004602Y14564586D01*
X27076878Y14402250D01*
X27148286Y14303965D01*
X26946309Y14101988D01*
X26934197Y14095869D01*
X26934197Y9629750D01*
X27808392Y9629750D01*
X27808392Y13677677D01*
X27606293Y13696404D01*
X27597244Y13698096D01*
X27402021Y13753641D01*
X27393427Y13756971D01*
X27211744Y13847438D01*
X27203914Y13852286D01*
X27088812Y13939207D01*
X27081080Y13950354D01*
X27081139Y13952415D01*
X27083829Y13956650D01*
X27288852Y14161673D01*
X27288852Y15492827D01*
X27087358Y15694321D01*
X27081239Y15706433D01*
X27081581Y15708462D01*
X27084832Y15712287D01*
X27203914Y15802214D01*
X27211744Y15807062D01*
X27393427Y15897529D01*
X27402021Y15900859D01*
X27597244Y15956404D01*
X27606293Y15958096D01*
X27808392Y15976823D01*
X27808392Y29017677D01*
X27624668Y29034701D01*
X27615619Y29036393D01*
X27438145Y29086888D01*
X27429551Y29090218D01*
X27264387Y29172460D01*
X27256557Y29177307D01*
X27109314Y29288501D01*
X27102501Y29294713D01*
X26978196Y29431068D01*
X26972650Y29438412D01*
X26875509Y29595301D01*
X26871411Y29603531D01*
X26804755Y29775587D01*
X26802232Y29784455D01*
X26768328Y29965824D01*
X26767479Y29974989D01*
X26767479Y30159511D01*
X26768328Y30168676D01*
X26802232Y30350045D01*
X26804755Y30358913D01*
X26871411Y30530969D01*
X26875509Y30539199D01*
X26972650Y30696088D01*
X26978196Y30703432D01*
X27102501Y30839787D01*
X27109314Y30845999D01*
X27256557Y30957193D01*
X27264387Y30962040D01*
X27429551Y31044282D01*
X27438145Y31047612D01*
X27615619Y31098107D01*
X27624668Y31099799D01*
X27808392Y31116823D01*
X27817608Y31116823D01*
X28001332Y31099799D01*
X28010381Y31098107D01*
X28187855Y31047612D01*
X28196449Y31044282D01*
X28361613Y30962040D01*
X28369443Y30957193D01*
X28516686Y30845999D01*
X28523499Y30839787D01*
X28647804Y30703432D01*
X28653350Y30696088D01*
X28750491Y30539199D01*
X28754589Y30530969D01*
X28821245Y30358913D01*
X28823768Y30350045D01*
X28857672Y30168676D01*
X28858521Y30159511D01*
X28858521Y29974989D01*
X28857672Y29965824D01*
X28823768Y29784455D01*
X28821245Y29775587D01*
X28754589Y29603531D01*
X28750491Y29595301D01*
X28653350Y29438412D01*
X28647804Y29431068D01*
X28523499Y29294713D01*
X28516686Y29288501D01*
X28369443Y29177307D01*
X28361613Y29172460D01*
X28196449Y29090218D01*
X28187855Y29086888D01*
X28010381Y29036393D01*
X28001332Y29034701D01*
X27817608Y29017677D01*
X27808392Y29017677D01*
X27808392Y15976823D01*
X27817608Y15976823D01*
X28019707Y15958096D01*
X28028756Y15956404D01*
X28223979Y15900859D01*
X28232573Y15897529D01*
X28414256Y15807062D01*
X28422086Y15802214D01*
X28537188Y15715293D01*
X28544920Y15704146D01*
X28544861Y15702085D01*
X28542171Y15697850D01*
X28337148Y15492827D01*
X28312617Y15514914D01*
X28158726Y15603764D01*
X27989725Y15658675D01*
X27813000Y15677250D01*
X27636275Y15658675D01*
X27467274Y15603764D01*
X27313383Y15514914D01*
X27288852Y15492827D01*
X27288852Y14161673D01*
X27313383Y14139586D01*
X27467274Y14050736D01*
X27636275Y13995825D01*
X27813000Y13977250D01*
X27989725Y13995825D01*
X28158726Y14050736D01*
X28312617Y14139586D01*
X28337148Y14161673D01*
X28538642Y13960179D01*
X28544761Y13948067D01*
X28544419Y13946038D01*
X28541168Y13942213D01*
X28422086Y13852286D01*
X28414256Y13847438D01*
X28232573Y13756971D01*
X28223979Y13753641D01*
X28028756Y13698096D01*
X28019707Y13696404D01*
X27817608Y13677677D01*
X27808392Y13677677D01*
X27808392Y9629750D01*
X28689987Y9629750D01*
X28689987Y14095828D01*
X28685488Y14096375D01*
X28684871Y14096808D01*
X28477714Y14303965D01*
X28549122Y14402250D01*
X28621398Y14564586D01*
X28658344Y14738401D01*
X28658344Y14916099D01*
X28621398Y15089914D01*
X28549122Y15252250D01*
X28477714Y15350535D01*
X28679691Y15552512D01*
X28691803Y15558631D01*
X28696268Y15557877D01*
X28696869Y15557413D01*
X28727606Y15523696D01*
X28733152Y15516352D01*
X28840002Y15343783D01*
X28844111Y15335531D01*
X28917428Y15146274D01*
X28919949Y15137417D01*
X28957245Y14937903D01*
X28958094Y14928738D01*
X28958094Y14725762D01*
X28957245Y14716597D01*
X28919949Y14517083D01*
X28917428Y14508226D01*
X28844111Y14318969D01*
X28840002Y14310717D01*
X28733152Y14138148D01*
X28727606Y14130804D01*
X28701802Y14102499D01*
X28689987Y14095828D01*
X28689987Y9629750D01*
X30348392Y9629750D01*
X30348392Y13777677D01*
X30164668Y13794701D01*
X30155619Y13796393D01*
X29978145Y13846888D01*
X29969551Y13850218D01*
X29804387Y13932460D01*
X29796557Y13937307D01*
X29649314Y14048501D01*
X29642501Y14054713D01*
X29518196Y14191068D01*
X29512650Y14198412D01*
X29415509Y14355301D01*
X29411411Y14363531D01*
X29344755Y14535587D01*
X29342232Y14544455D01*
X29308328Y14725824D01*
X29307479Y14734989D01*
X29307479Y14919511D01*
X29308328Y14928676D01*
X29342232Y15110045D01*
X29344755Y15118913D01*
X29411411Y15290969D01*
X29415509Y15299199D01*
X29512650Y15456088D01*
X29518196Y15463432D01*
X29642501Y15599787D01*
X29649314Y15605999D01*
X29796557Y15717193D01*
X29804387Y15722040D01*
X29969551Y15804282D01*
X29978145Y15807612D01*
X30155619Y15858107D01*
X30164668Y15859799D01*
X30348392Y15876823D01*
X30348392Y29017677D01*
X30164668Y29034701D01*
X30155619Y29036393D01*
X29978145Y29086888D01*
X29969551Y29090218D01*
X29804387Y29172460D01*
X29796557Y29177307D01*
X29649314Y29288501D01*
X29642501Y29294713D01*
X29518196Y29431068D01*
X29512650Y29438412D01*
X29415509Y29595301D01*
X29411411Y29603531D01*
X29344755Y29775587D01*
X29342232Y29784455D01*
X29308328Y29965824D01*
X29307479Y29974989D01*
X29307479Y30159511D01*
X29308328Y30168676D01*
X29342232Y30350045D01*
X29344755Y30358913D01*
X29411411Y30530969D01*
X29415509Y30539199D01*
X29512650Y30696088D01*
X29518196Y30703432D01*
X29642501Y30839787D01*
X29649314Y30845999D01*
X29796557Y30957193D01*
X29804387Y30962040D01*
X29969551Y31044282D01*
X29978145Y31047612D01*
X30155619Y31098107D01*
X30164668Y31099799D01*
X30348392Y31116823D01*
X30357608Y31116823D01*
X30541332Y31099799D01*
X30550381Y31098107D01*
X30727855Y31047612D01*
X30736449Y31044282D01*
X30901613Y30962040D01*
X30909443Y30957193D01*
X31056686Y30845999D01*
X31063499Y30839787D01*
X31187804Y30703432D01*
X31193350Y30696088D01*
X31290491Y30539199D01*
X31294589Y30530969D01*
X31361245Y30358913D01*
X31363768Y30350045D01*
X31397672Y30168676D01*
X31398521Y30159511D01*
X31398521Y29974989D01*
X31397672Y29965824D01*
X31363768Y29784455D01*
X31361245Y29775587D01*
X31294589Y29603531D01*
X31290491Y29595301D01*
X31193350Y29438412D01*
X31187804Y29431068D01*
X31063499Y29294713D01*
X31056686Y29288501D01*
X30909443Y29177307D01*
X30901613Y29172460D01*
X30736449Y29090218D01*
X30727855Y29086888D01*
X30550381Y29036393D01*
X30541332Y29034701D01*
X30357608Y29017677D01*
X30348392Y29017677D01*
X30348392Y15876823D01*
X30357608Y15876823D01*
X30541332Y15859799D01*
X30550381Y15858107D01*
X30727855Y15807612D01*
X30736449Y15804282D01*
X30901613Y15722040D01*
X30909443Y15717193D01*
X31056686Y15605999D01*
X31063499Y15599787D01*
X31187804Y15463432D01*
X31193350Y15456088D01*
X31290491Y15299199D01*
X31294589Y15290969D01*
X31361245Y15118913D01*
X31363768Y15110045D01*
X31397672Y14928676D01*
X31398521Y14919511D01*
X31398521Y14734989D01*
X31397672Y14725824D01*
X31363768Y14544455D01*
X31361245Y14535587D01*
X31294589Y14363531D01*
X31290491Y14355301D01*
X31193350Y14198412D01*
X31187804Y14191068D01*
X31063499Y14054713D01*
X31056686Y14048501D01*
X30909443Y13937307D01*
X30901613Y13932460D01*
X30736449Y13850218D01*
X30727855Y13846888D01*
X30550381Y13796393D01*
X30541332Y13794701D01*
X30357608Y13777677D01*
X30348392Y13777677D01*
X30348392Y9629750D01*
X32888392Y9629750D01*
X32888392Y13777677D01*
X32704668Y13794701D01*
X32695619Y13796393D01*
X32518145Y13846888D01*
X32509551Y13850218D01*
X32344387Y13932460D01*
X32336557Y13937307D01*
X32189314Y14048501D01*
X32182501Y14054713D01*
X32058196Y14191068D01*
X32052650Y14198412D01*
X31955509Y14355301D01*
X31951411Y14363531D01*
X31884755Y14535587D01*
X31882232Y14544455D01*
X31848328Y14725824D01*
X31847479Y14734989D01*
X31847479Y14919511D01*
X31848328Y14928676D01*
X31882232Y15110045D01*
X31884755Y15118913D01*
X31951411Y15290969D01*
X31955509Y15299199D01*
X32052650Y15456088D01*
X32058196Y15463432D01*
X32182501Y15599787D01*
X32189314Y15605999D01*
X32336557Y15717193D01*
X32344387Y15722040D01*
X32509551Y15804282D01*
X32518145Y15807612D01*
X32695619Y15858107D01*
X32704668Y15859799D01*
X32888392Y15876823D01*
X32888392Y29017677D01*
X32704668Y29034701D01*
X32695619Y29036393D01*
X32518145Y29086888D01*
X32509551Y29090218D01*
X32344387Y29172460D01*
X32336557Y29177307D01*
X32189314Y29288501D01*
X32182501Y29294713D01*
X32058196Y29431068D01*
X32052650Y29438412D01*
X31955509Y29595301D01*
X31951411Y29603531D01*
X31884755Y29775587D01*
X31882232Y29784455D01*
X31848328Y29965824D01*
X31847479Y29974989D01*
X31847479Y30159511D01*
X31848328Y30168676D01*
X31882232Y30350045D01*
X31884755Y30358913D01*
X31951411Y30530969D01*
X31955509Y30539199D01*
X32052650Y30696088D01*
X32058196Y30703432D01*
X32182501Y30839787D01*
X32189314Y30845999D01*
X32336557Y30957193D01*
X32344387Y30962040D01*
X32509551Y31044282D01*
X32518145Y31047612D01*
X32695619Y31098107D01*
X32704668Y31099799D01*
X32888392Y31116823D01*
X32897608Y31116823D01*
X33081332Y31099799D01*
X33090381Y31098107D01*
X33267855Y31047612D01*
X33276449Y31044282D01*
X33441613Y30962040D01*
X33449443Y30957193D01*
X33596686Y30845999D01*
X33603499Y30839787D01*
X33727804Y30703432D01*
X33733350Y30696088D01*
X33830491Y30539199D01*
X33834589Y30530969D01*
X33901245Y30358913D01*
X33903768Y30350045D01*
X33937672Y30168676D01*
X33938521Y30159511D01*
X33938521Y29974989D01*
X33937672Y29965824D01*
X33903768Y29784455D01*
X33901245Y29775587D01*
X33834589Y29603531D01*
X33830491Y29595301D01*
X33733350Y29438412D01*
X33727804Y29431068D01*
X33603499Y29294713D01*
X33596686Y29288501D01*
X33449443Y29177307D01*
X33441613Y29172460D01*
X33276449Y29090218D01*
X33267855Y29086888D01*
X33090381Y29036393D01*
X33081332Y29034701D01*
X32897608Y29017677D01*
X32888392Y29017677D01*
X32888392Y15876823D01*
X32897608Y15876823D01*
X33081332Y15859799D01*
X33090381Y15858107D01*
X33267855Y15807612D01*
X33276449Y15804282D01*
X33441613Y15722040D01*
X33449443Y15717193D01*
X33596686Y15605999D01*
X33603499Y15599787D01*
X33727804Y15463432D01*
X33733350Y15456088D01*
X33830491Y15299199D01*
X33834589Y15290969D01*
X33901245Y15118913D01*
X33903768Y15110045D01*
X33937672Y14928676D01*
X33938521Y14919511D01*
X33938521Y14734989D01*
X33937672Y14725824D01*
X33903768Y14544455D01*
X33901245Y14535587D01*
X33834589Y14363531D01*
X33830491Y14355301D01*
X33733350Y14198412D01*
X33727804Y14191068D01*
X33603499Y14054713D01*
X33596686Y14048501D01*
X33449443Y13937307D01*
X33441613Y13932460D01*
X33276449Y13850218D01*
X33267855Y13846888D01*
X33090381Y13796393D01*
X33081332Y13794701D01*
X32897608Y13777677D01*
X32888392Y13777677D01*
X32888392Y9629750D01*
X35428392Y9629750D01*
X35428392Y13777677D01*
X35244668Y13794701D01*
X35235619Y13796393D01*
X35058145Y13846888D01*
X35049551Y13850218D01*
X34884387Y13932460D01*
X34876557Y13937307D01*
X34729314Y14048501D01*
X34722501Y14054713D01*
X34598196Y14191068D01*
X34592650Y14198412D01*
X34495509Y14355301D01*
X34491411Y14363531D01*
X34424755Y14535587D01*
X34422232Y14544455D01*
X34388328Y14725824D01*
X34387479Y14734989D01*
X34387479Y14919511D01*
X34388328Y14928676D01*
X34422232Y15110045D01*
X34424755Y15118913D01*
X34491411Y15290969D01*
X34495509Y15299199D01*
X34592650Y15456088D01*
X34598196Y15463432D01*
X34722501Y15599787D01*
X34729314Y15605999D01*
X34876557Y15717193D01*
X34884387Y15722040D01*
X35049551Y15804282D01*
X35058145Y15807612D01*
X35235619Y15858107D01*
X35244668Y15859799D01*
X35428392Y15876823D01*
X35428392Y29017677D01*
X35244668Y29034701D01*
X35235619Y29036393D01*
X35058145Y29086888D01*
X35049551Y29090218D01*
X34884387Y29172460D01*
X34876557Y29177307D01*
X34729314Y29288501D01*
X34722501Y29294713D01*
X34598196Y29431068D01*
X34592650Y29438412D01*
X34495509Y29595301D01*
X34491411Y29603531D01*
X34424755Y29775587D01*
X34422232Y29784455D01*
X34388328Y29965824D01*
X34387479Y29974989D01*
X34387479Y30159511D01*
X34388328Y30168676D01*
X34422232Y30350045D01*
X34424755Y30358913D01*
X34491411Y30530969D01*
X34495509Y30539199D01*
X34592650Y30696088D01*
X34598196Y30703432D01*
X34722501Y30839787D01*
X34729314Y30845999D01*
X34876557Y30957193D01*
X34884387Y30962040D01*
X35049551Y31044282D01*
X35058145Y31047612D01*
X35235619Y31098107D01*
X35244668Y31099799D01*
X35428392Y31116823D01*
X35437608Y31116823D01*
X35621332Y31099799D01*
X35630381Y31098107D01*
X35807855Y31047612D01*
X35816449Y31044282D01*
X35981613Y30962040D01*
X35989443Y30957193D01*
X36136686Y30845999D01*
X36143499Y30839787D01*
X36267804Y30703432D01*
X36273350Y30696088D01*
X36370491Y30539199D01*
X36374589Y30530969D01*
X36441245Y30358913D01*
X36443768Y30350045D01*
X36477672Y30168676D01*
X36478521Y30159511D01*
X36478521Y29974989D01*
X36477672Y29965824D01*
X36443768Y29784455D01*
X36441245Y29775587D01*
X36374589Y29603531D01*
X36370491Y29595301D01*
X36273350Y29438412D01*
X36267804Y29431068D01*
X36143499Y29294713D01*
X36136686Y29288501D01*
X35989443Y29177307D01*
X35981613Y29172460D01*
X35816449Y29090218D01*
X35807855Y29086888D01*
X35630381Y29036393D01*
X35621332Y29034701D01*
X35437608Y29017677D01*
X35428392Y29017677D01*
X35428392Y15876823D01*
X35437608Y15876823D01*
X35621332Y15859799D01*
X35630381Y15858107D01*
X35807855Y15807612D01*
X35816449Y15804282D01*
X35981613Y15722040D01*
X35989443Y15717193D01*
X36136686Y15605999D01*
X36143499Y15599787D01*
X36267804Y15463432D01*
X36273350Y15456088D01*
X36370491Y15299199D01*
X36374589Y15290969D01*
X36441245Y15118913D01*
X36443768Y15110045D01*
X36477672Y14928676D01*
X36478521Y14919511D01*
X36478521Y14734989D01*
X36477672Y14725824D01*
X36443768Y14544455D01*
X36441245Y14535587D01*
X36374589Y14363531D01*
X36370491Y14355301D01*
X36273350Y14198412D01*
X36267804Y14191068D01*
X36143499Y14054713D01*
X36136686Y14048501D01*
X35989443Y13937307D01*
X35981613Y13932460D01*
X35816449Y13850218D01*
X35807855Y13846888D01*
X35630381Y13796393D01*
X35621332Y13794701D01*
X35437608Y13777677D01*
X35428392Y13777677D01*
X35428392Y9629750D01*
X37968392Y9629750D01*
X37968392Y13777677D01*
X37784668Y13794701D01*
X37775619Y13796393D01*
X37598145Y13846888D01*
X37589551Y13850218D01*
X37424387Y13932460D01*
X37416557Y13937307D01*
X37269314Y14048501D01*
X37262501Y14054713D01*
X37138196Y14191068D01*
X37132650Y14198412D01*
X37035509Y14355301D01*
X37031411Y14363531D01*
X36964755Y14535587D01*
X36962232Y14544455D01*
X36928328Y14725824D01*
X36927479Y14734989D01*
X36927479Y14919511D01*
X36928328Y14928676D01*
X36962232Y15110045D01*
X36964755Y15118913D01*
X37031411Y15290969D01*
X37035509Y15299199D01*
X37132650Y15456088D01*
X37138196Y15463432D01*
X37262501Y15599787D01*
X37269314Y15605999D01*
X37416557Y15717193D01*
X37424387Y15722040D01*
X37589551Y15804282D01*
X37598145Y15807612D01*
X37775619Y15858107D01*
X37784668Y15859799D01*
X37968392Y15876823D01*
X37968392Y29017677D01*
X37784668Y29034701D01*
X37775619Y29036393D01*
X37598145Y29086888D01*
X37589551Y29090218D01*
X37424387Y29172460D01*
X37416557Y29177307D01*
X37269314Y29288501D01*
X37262501Y29294713D01*
X37138196Y29431068D01*
X37132650Y29438412D01*
X37035509Y29595301D01*
X37031411Y29603531D01*
X36964755Y29775587D01*
X36962232Y29784455D01*
X36928328Y29965824D01*
X36927479Y29974989D01*
X36927479Y30159511D01*
X36928328Y30168676D01*
X36962232Y30350045D01*
X36964755Y30358913D01*
X37031411Y30530969D01*
X37035509Y30539199D01*
X37132650Y30696088D01*
X37138196Y30703432D01*
X37262501Y30839787D01*
X37269314Y30845999D01*
X37416557Y30957193D01*
X37424387Y30962040D01*
X37589551Y31044282D01*
X37598145Y31047612D01*
X37775619Y31098107D01*
X37784668Y31099799D01*
X37968392Y31116823D01*
X37977608Y31116823D01*
X38161332Y31099799D01*
X38170381Y31098107D01*
X38347855Y31047612D01*
X38356449Y31044282D01*
X38521613Y30962040D01*
X38529443Y30957193D01*
X38676686Y30845999D01*
X38683499Y30839787D01*
X38807804Y30703432D01*
X38813350Y30696088D01*
X38910491Y30539199D01*
X38914589Y30530969D01*
X38981245Y30358913D01*
X38983768Y30350045D01*
X39017672Y30168676D01*
X39018521Y30159511D01*
X39018521Y29974989D01*
X39017672Y29965824D01*
X38983768Y29784455D01*
X38981245Y29775587D01*
X38914589Y29603531D01*
X38910491Y29595301D01*
X38813350Y29438412D01*
X38807804Y29431068D01*
X38683499Y29294713D01*
X38676686Y29288501D01*
X38529443Y29177307D01*
X38521613Y29172460D01*
X38356449Y29090218D01*
X38347855Y29086888D01*
X38170381Y29036393D01*
X38161332Y29034701D01*
X37977608Y29017677D01*
X37968392Y29017677D01*
X37968392Y15876823D01*
X37977608Y15876823D01*
X38161332Y15859799D01*
X38170381Y15858107D01*
X38347855Y15807612D01*
X38356449Y15804282D01*
X38521613Y15722040D01*
X38529443Y15717193D01*
X38676686Y15605999D01*
X38683499Y15599787D01*
X38807804Y15463432D01*
X38813350Y15456088D01*
X38910491Y15299199D01*
X38914589Y15290969D01*
X38981245Y15118913D01*
X38983768Y15110045D01*
X39017672Y14928676D01*
X39018521Y14919511D01*
X39018521Y14734989D01*
X39017672Y14725824D01*
X38983768Y14544455D01*
X38981245Y14535587D01*
X38914589Y14363531D01*
X38910491Y14355301D01*
X38813350Y14198412D01*
X38807804Y14191068D01*
X38683499Y14054713D01*
X38676686Y14048501D01*
X38529443Y13937307D01*
X38521613Y13932460D01*
X38356449Y13850218D01*
X38347855Y13846888D01*
X38170381Y13796393D01*
X38161332Y13794701D01*
X37977608Y13777677D01*
X37968392Y13777677D01*
X37968392Y9629750D01*
X40508392Y9629750D01*
X40508392Y13777677D01*
X40324668Y13794701D01*
X40315619Y13796393D01*
X40138145Y13846888D01*
X40129551Y13850218D01*
X39964387Y13932460D01*
X39956557Y13937307D01*
X39809314Y14048501D01*
X39802501Y14054713D01*
X39678196Y14191068D01*
X39672650Y14198412D01*
X39575509Y14355301D01*
X39571411Y14363531D01*
X39504755Y14535587D01*
X39502232Y14544455D01*
X39468328Y14725824D01*
X39467479Y14734989D01*
X39467479Y14919511D01*
X39468328Y14928676D01*
X39502232Y15110045D01*
X39504755Y15118913D01*
X39571411Y15290969D01*
X39575509Y15299199D01*
X39672650Y15456088D01*
X39678196Y15463432D01*
X39802501Y15599787D01*
X39809314Y15605999D01*
X39956557Y15717193D01*
X39964387Y15722040D01*
X40129551Y15804282D01*
X40138145Y15807612D01*
X40315619Y15858107D01*
X40324668Y15859799D01*
X40508392Y15876823D01*
X40508392Y29017677D01*
X40324668Y29034701D01*
X40315619Y29036393D01*
X40138145Y29086888D01*
X40129551Y29090218D01*
X39964387Y29172460D01*
X39956557Y29177307D01*
X39809314Y29288501D01*
X39802501Y29294713D01*
X39678196Y29431068D01*
X39672650Y29438412D01*
X39575509Y29595301D01*
X39571411Y29603531D01*
X39504755Y29775587D01*
X39502232Y29784455D01*
X39468328Y29965824D01*
X39467479Y29974989D01*
X39467479Y30159511D01*
X39468328Y30168676D01*
X39502232Y30350045D01*
X39504755Y30358913D01*
X39571411Y30530969D01*
X39575509Y30539199D01*
X39672650Y30696088D01*
X39678196Y30703432D01*
X39802501Y30839787D01*
X39809314Y30845999D01*
X39956557Y30957193D01*
X39964387Y30962040D01*
X40129551Y31044282D01*
X40138145Y31047612D01*
X40315619Y31098107D01*
X40324668Y31099799D01*
X40508392Y31116823D01*
X40517608Y31116823D01*
X40701332Y31099799D01*
X40710381Y31098107D01*
X40887855Y31047612D01*
X40896449Y31044282D01*
X41061613Y30962040D01*
X41069443Y30957193D01*
X41216686Y30845999D01*
X41223499Y30839787D01*
X41347804Y30703432D01*
X41353350Y30696088D01*
X41450491Y30539199D01*
X41454589Y30530969D01*
X41521245Y30358913D01*
X41523768Y30350045D01*
X41557672Y30168676D01*
X41558521Y30159511D01*
X41558521Y29974989D01*
X41557672Y29965824D01*
X41523768Y29784455D01*
X41521245Y29775587D01*
X41454589Y29603531D01*
X41450491Y29595301D01*
X41353350Y29438412D01*
X41347804Y29431068D01*
X41223499Y29294713D01*
X41216686Y29288501D01*
X41069443Y29177307D01*
X41061613Y29172460D01*
X40896449Y29090218D01*
X40887855Y29086888D01*
X40710381Y29036393D01*
X40701332Y29034701D01*
X40517608Y29017677D01*
X40508392Y29017677D01*
X40508392Y15876823D01*
X40517608Y15876823D01*
X40701332Y15859799D01*
X40710381Y15858107D01*
X40887855Y15807612D01*
X40896449Y15804282D01*
X41061613Y15722040D01*
X41069443Y15717193D01*
X41216686Y15605999D01*
X41223499Y15599787D01*
X41347804Y15463432D01*
X41353350Y15456088D01*
X41450491Y15299199D01*
X41454589Y15290969D01*
X41521245Y15118913D01*
X41523768Y15110045D01*
X41557672Y14928676D01*
X41558521Y14919511D01*
X41558521Y14734989D01*
X41557672Y14725824D01*
X41523768Y14544455D01*
X41521245Y14535587D01*
X41454589Y14363531D01*
X41450491Y14355301D01*
X41353350Y14198412D01*
X41347804Y14191068D01*
X41223499Y14054713D01*
X41216686Y14048501D01*
X41069443Y13937307D01*
X41061613Y13932460D01*
X40896449Y13850218D01*
X40887855Y13846888D01*
X40710381Y13796393D01*
X40701332Y13794701D01*
X40517608Y13777677D01*
X40508392Y13777677D01*
X40508392Y9629750D01*
X43048392Y9629750D01*
X43048392Y13777677D01*
X42864668Y13794701D01*
X42855619Y13796393D01*
X42678145Y13846888D01*
X42669551Y13850218D01*
X42504387Y13932460D01*
X42496557Y13937307D01*
X42349314Y14048501D01*
X42342501Y14054713D01*
X42218196Y14191068D01*
X42212650Y14198412D01*
X42115509Y14355301D01*
X42111411Y14363531D01*
X42044755Y14535587D01*
X42042232Y14544455D01*
X42008328Y14725824D01*
X42007479Y14734989D01*
X42007479Y14919511D01*
X42008328Y14928676D01*
X42042232Y15110045D01*
X42044755Y15118913D01*
X42111411Y15290969D01*
X42115509Y15299199D01*
X42212650Y15456088D01*
X42218196Y15463432D01*
X42342501Y15599787D01*
X42349314Y15605999D01*
X42496557Y15717193D01*
X42504387Y15722040D01*
X42669551Y15804282D01*
X42678145Y15807612D01*
X42855619Y15858107D01*
X42864668Y15859799D01*
X43048392Y15876823D01*
X43048392Y29017677D01*
X42864668Y29034701D01*
X42855619Y29036393D01*
X42678145Y29086888D01*
X42669551Y29090218D01*
X42504387Y29172460D01*
X42496557Y29177307D01*
X42349314Y29288501D01*
X42342501Y29294713D01*
X42218196Y29431068D01*
X42212650Y29438412D01*
X42115509Y29595301D01*
X42111411Y29603531D01*
X42044755Y29775587D01*
X42042232Y29784455D01*
X42008328Y29965824D01*
X42007479Y29974989D01*
X42007479Y30159511D01*
X42008328Y30168676D01*
X42042232Y30350045D01*
X42044755Y30358913D01*
X42111411Y30530969D01*
X42115509Y30539199D01*
X42212650Y30696088D01*
X42218196Y30703432D01*
X42342501Y30839787D01*
X42349314Y30845999D01*
X42496557Y30957193D01*
X42504387Y30962040D01*
X42669551Y31044282D01*
X42678145Y31047612D01*
X42855619Y31098107D01*
X42864668Y31099799D01*
X43048392Y31116823D01*
X43057608Y31116823D01*
X43241332Y31099799D01*
X43250381Y31098107D01*
X43427855Y31047612D01*
X43436449Y31044282D01*
X43601613Y30962040D01*
X43609443Y30957193D01*
X43756686Y30845999D01*
X43763499Y30839787D01*
X43887804Y30703432D01*
X43893350Y30696088D01*
X43990491Y30539199D01*
X43994589Y30530969D01*
X44061245Y30358913D01*
X44063768Y30350045D01*
X44097672Y30168676D01*
X44098521Y30159511D01*
X44098521Y29974989D01*
X44097672Y29965824D01*
X44063768Y29784455D01*
X44061245Y29775587D01*
X43994589Y29603531D01*
X43990491Y29595301D01*
X43893350Y29438412D01*
X43887804Y29431068D01*
X43763499Y29294713D01*
X43756686Y29288501D01*
X43609443Y29177307D01*
X43601613Y29172460D01*
X43436449Y29090218D01*
X43427855Y29086888D01*
X43250381Y29036393D01*
X43241332Y29034701D01*
X43057608Y29017677D01*
X43048392Y29017677D01*
X43048392Y15876823D01*
X43057608Y15876823D01*
X43241332Y15859799D01*
X43250381Y15858107D01*
X43427855Y15807612D01*
X43436449Y15804282D01*
X43601613Y15722040D01*
X43609443Y15717193D01*
X43756686Y15605999D01*
X43763499Y15599787D01*
X43887804Y15463432D01*
X43893350Y15456088D01*
X43990491Y15299199D01*
X43994589Y15290969D01*
X44061245Y15118913D01*
X44063768Y15110045D01*
X44097672Y14928676D01*
X44098521Y14919511D01*
X44098521Y14734989D01*
X44097672Y14725824D01*
X44063768Y14544455D01*
X44061245Y14535587D01*
X43994589Y14363531D01*
X43990491Y14355301D01*
X43893350Y14198412D01*
X43887804Y14191068D01*
X43763499Y14054713D01*
X43756686Y14048501D01*
X43609443Y13937307D01*
X43601613Y13932460D01*
X43436449Y13850218D01*
X43427855Y13846888D01*
X43250381Y13796393D01*
X43241332Y13794701D01*
X43057608Y13777677D01*
X43048392Y13777677D01*
X43048392Y9629750D01*
X45588392Y9629750D01*
X45588392Y13777677D01*
X45404668Y13794701D01*
X45395619Y13796393D01*
X45218145Y13846888D01*
X45209551Y13850218D01*
X45044387Y13932460D01*
X45036557Y13937307D01*
X44889314Y14048501D01*
X44882501Y14054713D01*
X44758196Y14191068D01*
X44752650Y14198412D01*
X44655509Y14355301D01*
X44651411Y14363531D01*
X44584755Y14535587D01*
X44582232Y14544455D01*
X44548328Y14725824D01*
X44547479Y14734989D01*
X44547479Y14919511D01*
X44548328Y14928676D01*
X44582232Y15110045D01*
X44584755Y15118913D01*
X44651411Y15290969D01*
X44655509Y15299199D01*
X44752650Y15456088D01*
X44758196Y15463432D01*
X44882501Y15599787D01*
X44889314Y15605999D01*
X45036557Y15717193D01*
X45044387Y15722040D01*
X45209551Y15804282D01*
X45218145Y15807612D01*
X45395619Y15858107D01*
X45404668Y15859799D01*
X45588392Y15876823D01*
X45588392Y29017677D01*
X45404668Y29034701D01*
X45395619Y29036393D01*
X45218145Y29086888D01*
X45209551Y29090218D01*
X45044387Y29172460D01*
X45036557Y29177307D01*
X44889314Y29288501D01*
X44882501Y29294713D01*
X44758196Y29431068D01*
X44752650Y29438412D01*
X44655509Y29595301D01*
X44651411Y29603531D01*
X44584755Y29775587D01*
X44582232Y29784455D01*
X44548328Y29965824D01*
X44547479Y29974989D01*
X44547479Y30159511D01*
X44548328Y30168676D01*
X44582232Y30350045D01*
X44584755Y30358913D01*
X44651411Y30530969D01*
X44655509Y30539199D01*
X44752650Y30696088D01*
X44758196Y30703432D01*
X44882501Y30839787D01*
X44889314Y30845999D01*
X45036557Y30957193D01*
X45044387Y30962040D01*
X45209551Y31044282D01*
X45218145Y31047612D01*
X45395619Y31098107D01*
X45404668Y31099799D01*
X45588392Y31116823D01*
X45597608Y31116823D01*
X45781332Y31099799D01*
X45790381Y31098107D01*
X45967855Y31047612D01*
X45976449Y31044282D01*
X46141613Y30962040D01*
X46149443Y30957193D01*
X46296686Y30845999D01*
X46303499Y30839787D01*
X46427804Y30703432D01*
X46433350Y30696088D01*
X46530491Y30539199D01*
X46534589Y30530969D01*
X46601245Y30358913D01*
X46603768Y30350045D01*
X46637672Y30168676D01*
X46638521Y30159511D01*
X46638521Y29974989D01*
X46637672Y29965824D01*
X46603768Y29784455D01*
X46601245Y29775587D01*
X46534589Y29603531D01*
X46530491Y29595301D01*
X46433350Y29438412D01*
X46427804Y29431068D01*
X46303499Y29294713D01*
X46296686Y29288501D01*
X46149443Y29177307D01*
X46141613Y29172460D01*
X45976449Y29090218D01*
X45967855Y29086888D01*
X45790381Y29036393D01*
X45781332Y29034701D01*
X45597608Y29017677D01*
X45588392Y29017677D01*
X45588392Y15876823D01*
X45597608Y15876823D01*
X45781332Y15859799D01*
X45790381Y15858107D01*
X45967855Y15807612D01*
X45976449Y15804282D01*
X46141613Y15722040D01*
X46149443Y15717193D01*
X46296686Y15605999D01*
X46303499Y15599787D01*
X46427804Y15463432D01*
X46433350Y15456088D01*
X46530491Y15299199D01*
X46534589Y15290969D01*
X46601245Y15118913D01*
X46603768Y15110045D01*
X46637672Y14928676D01*
X46638521Y14919511D01*
X46638521Y14734989D01*
X46637672Y14725824D01*
X46603768Y14544455D01*
X46601245Y14535587D01*
X46534589Y14363531D01*
X46530491Y14355301D01*
X46433350Y14198412D01*
X46427804Y14191068D01*
X46303499Y14054713D01*
X46296686Y14048501D01*
X46149443Y13937307D01*
X46141613Y13932460D01*
X45976449Y13850218D01*
X45967855Y13846888D01*
X45790381Y13796393D01*
X45781332Y13794701D01*
X45597608Y13777677D01*
X45588392Y13777677D01*
X45588392Y9629750D01*
X48128392Y9629750D01*
X48128392Y13777677D01*
X47944668Y13794701D01*
X47935619Y13796393D01*
X47758145Y13846888D01*
X47749551Y13850218D01*
X47584387Y13932460D01*
X47576557Y13937307D01*
X47429314Y14048501D01*
X47422501Y14054713D01*
X47298196Y14191068D01*
X47292650Y14198412D01*
X47195509Y14355301D01*
X47191411Y14363531D01*
X47124755Y14535587D01*
X47122232Y14544455D01*
X47088328Y14725824D01*
X47087479Y14734989D01*
X47087479Y14919511D01*
X47088328Y14928676D01*
X47122232Y15110045D01*
X47124755Y15118913D01*
X47191411Y15290969D01*
X47195509Y15299199D01*
X47292650Y15456088D01*
X47298196Y15463432D01*
X47422501Y15599787D01*
X47429314Y15605999D01*
X47576557Y15717193D01*
X47584387Y15722040D01*
X47749551Y15804282D01*
X47758145Y15807612D01*
X47935619Y15858107D01*
X47944668Y15859799D01*
X48128392Y15876823D01*
X48128392Y29017677D01*
X47944668Y29034701D01*
X47935619Y29036393D01*
X47758145Y29086888D01*
X47749551Y29090218D01*
X47584387Y29172460D01*
X47576557Y29177307D01*
X47429314Y29288501D01*
X47422501Y29294713D01*
X47298196Y29431068D01*
X47292650Y29438412D01*
X47195509Y29595301D01*
X47191411Y29603531D01*
X47124755Y29775587D01*
X47122232Y29784455D01*
X47088328Y29965824D01*
X47087479Y29974989D01*
X47087479Y30159511D01*
X47088328Y30168676D01*
X47122232Y30350045D01*
X47124755Y30358913D01*
X47191411Y30530969D01*
X47195509Y30539199D01*
X47292650Y30696088D01*
X47298196Y30703432D01*
X47422501Y30839787D01*
X47429314Y30845999D01*
X47576557Y30957193D01*
X47584387Y30962040D01*
X47749551Y31044282D01*
X47758145Y31047612D01*
X47935619Y31098107D01*
X47944668Y31099799D01*
X48128392Y31116823D01*
X48137608Y31116823D01*
X48321332Y31099799D01*
X48330381Y31098107D01*
X48507855Y31047612D01*
X48516449Y31044282D01*
X48681613Y30962040D01*
X48689443Y30957193D01*
X48836686Y30845999D01*
X48843499Y30839787D01*
X48967804Y30703432D01*
X48973350Y30696088D01*
X49070491Y30539199D01*
X49074589Y30530969D01*
X49141245Y30358913D01*
X49143768Y30350045D01*
X49177672Y30168676D01*
X49178521Y30159511D01*
X49178521Y29974989D01*
X49177672Y29965824D01*
X49143768Y29784455D01*
X49141245Y29775587D01*
X49074589Y29603531D01*
X49070491Y29595301D01*
X48973350Y29438412D01*
X48967804Y29431068D01*
X48843499Y29294713D01*
X48836686Y29288501D01*
X48689443Y29177307D01*
X48681613Y29172460D01*
X48516449Y29090218D01*
X48507855Y29086888D01*
X48330381Y29036393D01*
X48321332Y29034701D01*
X48137608Y29017677D01*
X48128392Y29017677D01*
X48128392Y15876823D01*
X48137608Y15876823D01*
X48321332Y15859799D01*
X48330381Y15858107D01*
X48507855Y15807612D01*
X48516449Y15804282D01*
X48681613Y15722040D01*
X48689443Y15717193D01*
X48836686Y15605999D01*
X48843499Y15599787D01*
X48967804Y15463432D01*
X48973350Y15456088D01*
X49070491Y15299199D01*
X49074589Y15290969D01*
X49141245Y15118913D01*
X49143768Y15110045D01*
X49177672Y14928676D01*
X49178521Y14919511D01*
X49178521Y14734989D01*
X49177672Y14725824D01*
X49143768Y14544455D01*
X49141245Y14535587D01*
X49074589Y14363531D01*
X49070491Y14355301D01*
X48973350Y14198412D01*
X48967804Y14191068D01*
X48843499Y14054713D01*
X48836686Y14048501D01*
X48689443Y13937307D01*
X48681613Y13932460D01*
X48516449Y13850218D01*
X48507855Y13846888D01*
X48330381Y13796393D01*
X48321332Y13794701D01*
X48137608Y13777677D01*
X48128392Y13777677D01*
X48128392Y9629750D01*
X50668392Y9629750D01*
X50668392Y13777677D01*
X50484668Y13794701D01*
X50475619Y13796393D01*
X50298145Y13846888D01*
X50289551Y13850218D01*
X50124387Y13932460D01*
X50116557Y13937307D01*
X49969314Y14048501D01*
X49962501Y14054713D01*
X49838196Y14191068D01*
X49832650Y14198412D01*
X49735509Y14355301D01*
X49731411Y14363531D01*
X49664755Y14535587D01*
X49662232Y14544455D01*
X49628328Y14725824D01*
X49627479Y14734989D01*
X49627479Y14919511D01*
X49628328Y14928676D01*
X49662232Y15110045D01*
X49664755Y15118913D01*
X49731411Y15290969D01*
X49735509Y15299199D01*
X49832650Y15456088D01*
X49838196Y15463432D01*
X49962501Y15599787D01*
X49969314Y15605999D01*
X50116557Y15717193D01*
X50124387Y15722040D01*
X50289551Y15804282D01*
X50298145Y15807612D01*
X50475619Y15858107D01*
X50484668Y15859799D01*
X50668392Y15876823D01*
X50668392Y29017677D01*
X50484668Y29034701D01*
X50475619Y29036393D01*
X50298145Y29086888D01*
X50289551Y29090218D01*
X50124387Y29172460D01*
X50116557Y29177307D01*
X49969314Y29288501D01*
X49962501Y29294713D01*
X49838196Y29431068D01*
X49832650Y29438412D01*
X49735509Y29595301D01*
X49731411Y29603531D01*
X49664755Y29775587D01*
X49662232Y29784455D01*
X49628328Y29965824D01*
X49627479Y29974989D01*
X49627479Y30159511D01*
X49628328Y30168676D01*
X49662232Y30350045D01*
X49664755Y30358913D01*
X49731411Y30530969D01*
X49735509Y30539199D01*
X49832650Y30696088D01*
X49838196Y30703432D01*
X49962501Y30839787D01*
X49969314Y30845999D01*
X50116557Y30957193D01*
X50124387Y30962040D01*
X50289551Y31044282D01*
X50298145Y31047612D01*
X50475619Y31098107D01*
X50484668Y31099799D01*
X50668392Y31116823D01*
X50677608Y31116823D01*
X50861332Y31099799D01*
X50870381Y31098107D01*
X51047855Y31047612D01*
X51056449Y31044282D01*
X51221613Y30962040D01*
X51229443Y30957193D01*
X51376686Y30845999D01*
X51383499Y30839787D01*
X51507804Y30703432D01*
X51513350Y30696088D01*
X51610491Y30539199D01*
X51614589Y30530969D01*
X51681245Y30358913D01*
X51683768Y30350045D01*
X51717672Y30168676D01*
X51718521Y30159511D01*
X51718521Y29974989D01*
X51717672Y29965824D01*
X51683768Y29784455D01*
X51681245Y29775587D01*
X51614589Y29603531D01*
X51610491Y29595301D01*
X51513350Y29438412D01*
X51507804Y29431068D01*
X51383499Y29294713D01*
X51376686Y29288501D01*
X51229443Y29177307D01*
X51221613Y29172460D01*
X51056449Y29090218D01*
X51047855Y29086888D01*
X50870381Y29036393D01*
X50861332Y29034701D01*
X50677608Y29017677D01*
X50668392Y29017677D01*
X50668392Y15876823D01*
X50677608Y15876823D01*
X50861332Y15859799D01*
X50870381Y15858107D01*
X51047855Y15807612D01*
X51056449Y15804282D01*
X51221613Y15722040D01*
X51229443Y15717193D01*
X51376686Y15605999D01*
X51383499Y15599787D01*
X51507804Y15463432D01*
X51513350Y15456088D01*
X51610491Y15299199D01*
X51614589Y15290969D01*
X51681245Y15118913D01*
X51683768Y15110045D01*
X51717672Y14928676D01*
X51718521Y14919511D01*
X51718521Y14734989D01*
X51717672Y14725824D01*
X51683768Y14544455D01*
X51681245Y14535587D01*
X51614589Y14363531D01*
X51610491Y14355301D01*
X51513350Y14198412D01*
X51507804Y14191068D01*
X51383499Y14054713D01*
X51376686Y14048501D01*
X51229443Y13937307D01*
X51221613Y13932460D01*
X51056449Y13850218D01*
X51047855Y13846888D01*
X50870381Y13796393D01*
X50861332Y13794701D01*
X50677608Y13777677D01*
X50668392Y13777677D01*
X50668392Y9629750D01*
X51907980Y9629750D01*
X51914489Y9629324D01*
X52055130Y9610808D01*
X52067677Y9607446D01*
X52195697Y9554418D01*
X52206949Y9547922D01*
X52319481Y9461572D01*
X52324393Y9457265D01*
X53208392Y8573266D01*
X53208392Y13777677D01*
X53024668Y13794701D01*
X53015619Y13796393D01*
X52838145Y13846888D01*
X52829551Y13850218D01*
X52664387Y13932460D01*
X52656557Y13937307D01*
X52509314Y14048501D01*
X52502501Y14054713D01*
X52378196Y14191068D01*
X52372650Y14198412D01*
X52275509Y14355301D01*
X52271411Y14363531D01*
X52204755Y14535587D01*
X52202232Y14544455D01*
X52168328Y14725824D01*
X52167479Y14734989D01*
X52167479Y14919511D01*
X52168328Y14928676D01*
X52202232Y15110045D01*
X52204755Y15118913D01*
X52271411Y15290969D01*
X52275509Y15299199D01*
X52372650Y15456088D01*
X52378196Y15463432D01*
X52502501Y15599787D01*
X52509314Y15605999D01*
X52656557Y15717193D01*
X52664387Y15722040D01*
X52829551Y15804282D01*
X52838145Y15807612D01*
X53015619Y15858107D01*
X53024668Y15859799D01*
X53208392Y15876823D01*
X53208392Y29017677D01*
X53024668Y29034701D01*
X53015619Y29036393D01*
X52838145Y29086888D01*
X52829551Y29090218D01*
X52664387Y29172460D01*
X52656557Y29177307D01*
X52509314Y29288501D01*
X52502501Y29294713D01*
X52378196Y29431068D01*
X52372650Y29438412D01*
X52275509Y29595301D01*
X52271411Y29603531D01*
X52204755Y29775587D01*
X52202232Y29784455D01*
X52168328Y29965824D01*
X52167479Y29974989D01*
X52167479Y30159511D01*
X52168328Y30168676D01*
X52202232Y30350045D01*
X52204755Y30358913D01*
X52271411Y30530969D01*
X52275509Y30539199D01*
X52372650Y30696088D01*
X52378196Y30703432D01*
X52502501Y30839787D01*
X52509314Y30845999D01*
X52656557Y30957193D01*
X52664387Y30962040D01*
X52829551Y31044282D01*
X52838145Y31047612D01*
X53015619Y31098107D01*
X53024668Y31099799D01*
X53208392Y31116823D01*
X53217608Y31116823D01*
X53401332Y31099799D01*
X53410381Y31098107D01*
X53587855Y31047612D01*
X53596449Y31044282D01*
X53761613Y30962040D01*
X53769443Y30957193D01*
X53916686Y30845999D01*
X53923499Y30839787D01*
X54047804Y30703432D01*
X54053350Y30696088D01*
X54150491Y30539199D01*
X54154589Y30530969D01*
X54221245Y30358913D01*
X54223768Y30350045D01*
X54257672Y30168676D01*
X54258521Y30159511D01*
X54258521Y29974989D01*
X54257672Y29965824D01*
X54223768Y29784455D01*
X54221245Y29775587D01*
X54154589Y29603531D01*
X54150491Y29595301D01*
X54053350Y29438412D01*
X54047804Y29431068D01*
X53923499Y29294713D01*
X53916686Y29288501D01*
X53769443Y29177307D01*
X53761613Y29172460D01*
X53596449Y29090218D01*
X53587855Y29086888D01*
X53410381Y29036393D01*
X53401332Y29034701D01*
X53217608Y29017677D01*
X53208392Y29017677D01*
X53208392Y15876823D01*
X53217608Y15876823D01*
X53401332Y15859799D01*
X53410381Y15858107D01*
X53587855Y15807612D01*
X53596449Y15804282D01*
X53761613Y15722040D01*
X53769443Y15717193D01*
X53916686Y15605999D01*
X53923499Y15599787D01*
X54047804Y15463432D01*
X54053350Y15456088D01*
X54150491Y15299199D01*
X54154589Y15290969D01*
X54221245Y15118913D01*
X54223768Y15110045D01*
X54257672Y14928676D01*
X54258521Y14919511D01*
X54258521Y14734989D01*
X54257672Y14725824D01*
X54223768Y14544455D01*
X54221245Y14535587D01*
X54154589Y14363531D01*
X54150491Y14355301D01*
X54053350Y14198412D01*
X54047804Y14191068D01*
X53923499Y14054713D01*
X53916686Y14048501D01*
X53769443Y13937307D01*
X53761613Y13932460D01*
X53596449Y13850218D01*
X53587855Y13846888D01*
X53410381Y13796393D01*
X53401332Y13794701D01*
X53217608Y13777677D01*
X53208392Y13777677D01*
X53208392Y8573266D01*
X53589765Y8191893D01*
X53594072Y8186981D01*
X53680422Y8074449D01*
X53686918Y8063197D01*
X53739946Y7935177D01*
X53743308Y7922630D01*
X53761395Y7785244D01*
X53761395Y7772256D01*
X53743308Y7634870D01*
X53739946Y7622323D01*
X53686918Y7494303D01*
X53680422Y7483051D01*
X53596069Y7373121D01*
X53586879Y7363931D01*
X53476949Y7279578D01*
X53465697Y7273082D01*
X53337677Y7220054D01*
X53325130Y7216692D01*
X53187744Y7198605D01*
X53174756Y7198605D01*
X53037370Y7216692D01*
X53024823Y7220054D01*
X52896803Y7273082D01*
X52885551Y7279578D01*
X52773019Y7365928D01*
X52768107Y7370235D01*
X51699881Y8438461D01*
X51629171Y8467750D01*
X44495999Y8467750D01*
X44436672Y8448250D01*
X44396000Y8367751D01*
X44396000Y7623270D01*
X44395574Y7616761D01*
X44377058Y7476120D01*
X44373696Y7463573D01*
X44320668Y7335553D01*
X44314172Y7324301D01*
X44229819Y7214371D01*
X44220629Y7205181D01*
X44110699Y7120828D01*
X44099447Y7114332D01*
X43971427Y7061304D01*
X43958880Y7057942D01*
X43821494Y7039855D01*
X43808506Y7039855D01*
X43671120Y7057942D01*
X43658573Y7061304D01*
X43530553Y7114332D01*
X43519301Y7120828D01*
X43409371Y7205181D01*
X43400181Y7214371D01*
X43315828Y7324301D01*
X43309332Y7335553D01*
X43256304Y7463573D01*
X43252942Y7476120D01*
X43234426Y7616761D01*
X43234000Y7623270D01*
X43234000Y8367751D01*
X43214500Y8427078D01*
X43134001Y8467750D01*
X34970999Y8467750D01*
X34911672Y8448250D01*
X34871000Y8367751D01*
X34871000Y7623270D01*
X34870574Y7616761D01*
X34852058Y7476120D01*
X34848696Y7463573D01*
X34795668Y7335553D01*
X34789172Y7324301D01*
X34704819Y7214371D01*
X34695629Y7205181D01*
X34585699Y7120828D01*
X34574447Y7114332D01*
X34446427Y7061304D01*
X34433880Y7057942D01*
X34296494Y7039855D01*
X34283506Y7039855D01*
X34146120Y7057942D01*
X34133573Y7061304D01*
X34005553Y7114332D01*
X33994301Y7120828D01*
X33884371Y7205181D01*
X33875181Y7214371D01*
X33790828Y7324301D01*
X33784332Y7335553D01*
X33731304Y7463573D01*
X33727942Y7476120D01*
X33709426Y7616761D01*
X33709000Y7623270D01*
X33709000Y8367751D01*
X33689500Y8427078D01*
X33609001Y8467750D01*
X25286972Y8467750D01*
X25227645Y8448250D01*
X25191456Y8397355D01*
X25192518Y8334914D01*
X25207638Y8306875D01*
X25264172Y8233199D01*
X25270668Y8221947D01*
X25323696Y8093927D01*
X25327058Y8081380D01*
X25345574Y7940739D01*
X25346000Y7934230D01*
X25346000Y7305770D01*
X25345574Y7299261D01*
X25327058Y7158620D01*
X25323696Y7146073D01*
X25270668Y7018053D01*
X25264172Y7006801D01*
X25179819Y6896871D01*
X25170629Y6887681D01*
X25060699Y6803328D01*
X25049447Y6796832D01*
X24921427Y6743804D01*
X24908880Y6740442D01*
X24771494Y6722355D01*
X24758506Y6722355D01*
X24621120Y6740442D01*
X24608573Y6743804D01*
X24480553Y6796832D01*
X24469301Y6803328D01*
X24359371Y6887681D01*
X24350181Y6896871D01*
X24265828Y7006801D01*
X24259332Y7018053D01*
X24206304Y7146073D01*
X24202942Y7158620D01*
X24184426Y7299261D01*
X24184000Y7305770D01*
X24184000Y7655421D01*
X24154711Y7726131D01*
X23442381Y8438461D01*
X23371671Y8467750D01*
X15719520Y8467750D01*
X15713011Y8468176D01*
X15572370Y8486692D01*
X15559823Y8490054D01*
X15431803Y8543082D01*
X15420551Y8549578D01*
X15308019Y8635928D01*
X15303107Y8640235D01*
X14944055Y8999287D01*
X14920600Y9014960D01*
X14921232Y9016054D01*
X14904298Y9025831D01*
X14791769Y9112178D01*
X14786857Y9116485D01*
X10236709Y13666633D01*
X10180970Y13694795D01*
X10119392Y13684397D01*
X10075991Y13639493D01*
X10066000Y13595923D01*
X10066000Y13339579D01*
X10095289Y13268869D01*
X15648515Y7715643D01*
X15652822Y7710731D01*
X15739172Y7598199D01*
X15745668Y7586947D01*
X15798696Y7458927D01*
X15802058Y7446380D01*
X15820145Y7308994D01*
X15820145Y7296006D01*
X15802058Y7158620D01*
X15798696Y7146073D01*
X15745668Y7018053D01*
X15739172Y7006801D01*
X15654819Y6896871D01*
X15645629Y6887681D01*
X15535699Y6803328D01*
X15524447Y6796832D01*
X15396427Y6743804D01*
X15383880Y6740442D01*
X15246494Y6722355D01*
X15233506Y6722355D01*
X15233506Y4469360D01*
X15235106Y4469518D01*
X15244894Y4469518D01*
X15428929Y4451392D01*
X15438526Y4449483D01*
X15615490Y4395802D01*
X15624534Y4392055D01*
X15787624Y4304882D01*
X15795760Y4299445D01*
X15938708Y4182132D01*
X15945632Y4175208D01*
X16062945Y4032260D01*
X16068382Y4024124D01*
X16155555Y3861034D01*
X16159302Y3851990D01*
X16212983Y3675026D01*
X16214892Y3665429D01*
X16233259Y3478943D01*
X16233500Y3474050D01*
X16233500Y2875950D01*
X16233259Y2871057D01*
X16214892Y2684571D01*
X16212983Y2674974D01*
X16159302Y2498010D01*
X16155555Y2488966D01*
X16068382Y2325876D01*
X16062945Y2317740D01*
X15945632Y2174792D01*
X15938708Y2167868D01*
X15795760Y2050555D01*
X15787624Y2045118D01*
X15624534Y1957945D01*
X15615490Y1954198D01*
X15438526Y1900517D01*
X15428929Y1898608D01*
X15244894Y1880482D01*
X15235106Y1880482D01*
X15235106Y300000D01*
X16991414Y300000D01*
X16991414Y1880000D01*
X16981683Y1880958D01*
X16919623Y1893303D01*
X16901773Y1900696D01*
X16853267Y1933108D01*
X16839608Y1946767D01*
X16807196Y1995273D01*
X16799803Y2013123D01*
X16787458Y2075183D01*
X16786500Y2084914D01*
X16786500Y4265086D01*
X16787458Y4274817D01*
X16799803Y4336877D01*
X16807196Y4354727D01*
X16839608Y4403233D01*
X16853267Y4416892D01*
X16901773Y4449304D01*
X16919623Y4456697D01*
X16981683Y4469042D01*
X16991414Y4470000D01*
X18568586Y4470000D01*
X18578317Y4469042D01*
X18640377Y4456697D01*
X18658227Y4449304D01*
X18706733Y4416892D01*
X18720392Y4403233D01*
X18752804Y4354727D01*
X18760197Y4336877D01*
X18772542Y4274817D01*
X18773500Y4265086D01*
X18773500Y2084914D01*
X18772542Y2075183D01*
X18760197Y2013123D01*
X18752804Y1995273D01*
X18720392Y1946767D01*
X18706733Y1933108D01*
X18658227Y1900696D01*
X18640377Y1893303D01*
X18578317Y1880958D01*
X18568586Y1880000D01*
X16991414Y1880000D01*
X16991414Y300000D01*
X22107362Y300000D01*
X22107362Y1787795D01*
X21930301Y1820893D01*
X21921433Y1823417D01*
X21741891Y1892971D01*
X21733661Y1897069D01*
X21569947Y1998436D01*
X21562603Y2003982D01*
X21420316Y2133695D01*
X21414104Y2140508D01*
X21298074Y2294157D01*
X21293226Y2301987D01*
X21207406Y2474337D01*
X21204076Y2482931D01*
X21151384Y2668126D01*
X21149692Y2677175D01*
X21131714Y2871195D01*
X21131500Y2875811D01*
X21131500Y3058982D01*
X21133066Y3063747D01*
X21147513Y3071046D01*
X21147513Y3275005D01*
X21142748Y3276571D01*
X21131500Y3298833D01*
X21131500Y3474189D01*
X21131714Y3478805D01*
X21149692Y3672825D01*
X21151384Y3681874D01*
X21204076Y3867069D01*
X21207406Y3875663D01*
X21293226Y4048013D01*
X21298074Y4055843D01*
X21414104Y4209492D01*
X21420316Y4216305D01*
X21562603Y4346018D01*
X21569947Y4351564D01*
X21733661Y4452931D01*
X21741891Y4457029D01*
X21921433Y4526583D01*
X21930301Y4529107D01*
X22113918Y4563431D01*
X22124995Y4541507D01*
X22124995Y4258732D01*
X22048430Y4250105D01*
X21880713Y4191419D01*
X21730261Y4096883D01*
X21604617Y3971239D01*
X21510081Y3820787D01*
X21451395Y3653070D01*
X21431500Y3476500D01*
X21431500Y3275005D01*
X21147513Y3275005D01*
X21147513Y3071046D01*
X21155328Y3074995D01*
X21431500Y3074995D01*
X21431500Y2873500D01*
X21451395Y2696930D01*
X21510081Y2529213D01*
X21604617Y2378761D01*
X21730261Y2253117D01*
X21880713Y2158581D01*
X22048430Y2099895D01*
X22124995Y2091268D01*
X22124995Y1800678D01*
X22123429Y1795913D01*
X22107362Y1787795D01*
X22107362Y300000D01*
X22336082Y300000D01*
X22336082Y1786569D01*
X22325005Y1808493D01*
X22325005Y2091268D01*
X22401570Y2099895D01*
X22569287Y2158581D01*
X22719739Y2253117D01*
X22845383Y2378761D01*
X22939919Y2529213D01*
X22998605Y2696930D01*
X23018500Y2873500D01*
X23018500Y3074995D01*
X23018500Y3275005D01*
X23018500Y3476500D01*
X22998605Y3653070D01*
X22939919Y3820787D01*
X22845383Y3971239D01*
X22719739Y4096883D01*
X22569287Y4191419D01*
X22401570Y4250105D01*
X22325005Y4258732D01*
X22325005Y4549322D01*
X22326571Y4554087D01*
X22342638Y4562205D01*
X22519699Y4529107D01*
X22528567Y4526583D01*
X22708109Y4457029D01*
X22716339Y4452931D01*
X22880053Y4351564D01*
X22887397Y4346018D01*
X23029684Y4216305D01*
X23035896Y4209492D01*
X23151926Y4055843D01*
X23156774Y4048013D01*
X23242594Y3875663D01*
X23245924Y3867069D01*
X23298616Y3681874D01*
X23300308Y3672825D01*
X23318286Y3478805D01*
X23318500Y3474189D01*
X23318500Y3291018D01*
X23316934Y3286253D01*
X23294672Y3275005D01*
X23018500Y3275005D01*
X23018500Y3074995D01*
X23302487Y3074995D01*
X23307252Y3073429D01*
X23318500Y3051167D01*
X23318500Y2875811D01*
X23318286Y2871195D01*
X23300308Y2677175D01*
X23298616Y2668126D01*
X23245924Y2482931D01*
X23242594Y2474337D01*
X23156774Y2301987D01*
X23151926Y2294157D01*
X23035896Y2140508D01*
X23029684Y2133695D01*
X22887397Y2003982D01*
X22880053Y1998436D01*
X22716339Y1897069D01*
X22708109Y1892971D01*
X22528567Y1823417D01*
X22519699Y1820893D01*
X22336082Y1786569D01*
X22336082Y300000D01*
X24760106Y300000D01*
X24760106Y1880482D01*
X24576071Y1898608D01*
X24566474Y1900517D01*
X24389510Y1954198D01*
X24380466Y1957945D01*
X24217376Y2045118D01*
X24209240Y2050555D01*
X24066292Y2167868D01*
X24059368Y2174792D01*
X23942055Y2317740D01*
X23936618Y2325876D01*
X23849445Y2488966D01*
X23845698Y2498010D01*
X23792017Y2674974D01*
X23790108Y2684571D01*
X23771741Y2871057D01*
X23771500Y2875950D01*
X23771500Y3474050D01*
X23771741Y3478943D01*
X23790108Y3665429D01*
X23792017Y3675026D01*
X23845698Y3851990D01*
X23849445Y3861034D01*
X23936618Y4024124D01*
X23942055Y4032260D01*
X24059368Y4175208D01*
X24066292Y4182132D01*
X24209240Y4299445D01*
X24217376Y4304882D01*
X24380466Y4392055D01*
X24389510Y4395802D01*
X24566474Y4449483D01*
X24576071Y4451392D01*
X24760106Y4469518D01*
X24769894Y4469518D01*
X24953929Y4451392D01*
X24963526Y4449483D01*
X25140490Y4395802D01*
X25149534Y4392055D01*
X25312624Y4304882D01*
X25320760Y4299445D01*
X25463708Y4182132D01*
X25470632Y4175208D01*
X25587945Y4032260D01*
X25593382Y4024124D01*
X25680555Y3861034D01*
X25684302Y3851990D01*
X25737983Y3675026D01*
X25739892Y3665429D01*
X25758259Y3478943D01*
X25758500Y3474050D01*
X25758500Y2875950D01*
X25758259Y2871057D01*
X25739892Y2684571D01*
X25737983Y2674974D01*
X25684302Y2498010D01*
X25680555Y2488966D01*
X25593382Y2325876D01*
X25587945Y2317740D01*
X25470632Y2174792D01*
X25463708Y2167868D01*
X25320760Y2050555D01*
X25312624Y2045118D01*
X25149534Y1957945D01*
X25140490Y1954198D01*
X24963526Y1900517D01*
X24953929Y1898608D01*
X24769894Y1880482D01*
X24760106Y1880482D01*
X24760106Y300000D01*
X26516414Y300000D01*
X26516414Y1880000D01*
X26506683Y1880958D01*
X26444623Y1893303D01*
X26426773Y1900696D01*
X26378267Y1933108D01*
X26364608Y1946767D01*
X26332196Y1995273D01*
X26324803Y2013123D01*
X26312458Y2075183D01*
X26311500Y2084914D01*
X26311500Y4265086D01*
X26312458Y4274817D01*
X26324803Y4336877D01*
X26332196Y4354727D01*
X26364608Y4403233D01*
X26378267Y4416892D01*
X26426773Y4449304D01*
X26444623Y4456697D01*
X26506683Y4469042D01*
X26516414Y4470000D01*
X28093586Y4470000D01*
X28103317Y4469042D01*
X28165377Y4456697D01*
X28183227Y4449304D01*
X28231733Y4416892D01*
X28245392Y4403233D01*
X28277804Y4354727D01*
X28285197Y4336877D01*
X28297542Y4274817D01*
X28298500Y4265086D01*
X28298500Y2084914D01*
X28297542Y2075183D01*
X28285197Y2013123D01*
X28277804Y1995273D01*
X28245392Y1946767D01*
X28231733Y1933108D01*
X28183227Y1900696D01*
X28165377Y1893303D01*
X28103317Y1880958D01*
X28093586Y1880000D01*
X26516414Y1880000D01*
X26516414Y300000D01*
X31632362Y300000D01*
X31632362Y1787795D01*
X31455301Y1820893D01*
X31446433Y1823417D01*
X31266891Y1892971D01*
X31258661Y1897069D01*
X31094947Y1998436D01*
X31087603Y2003982D01*
X30945316Y2133695D01*
X30939104Y2140508D01*
X30823074Y2294157D01*
X30818226Y2301987D01*
X30732406Y2474337D01*
X30729076Y2482931D01*
X30676384Y2668126D01*
X30674692Y2677175D01*
X30656714Y2871195D01*
X30656500Y2875811D01*
X30656500Y3058982D01*
X30658066Y3063747D01*
X30672513Y3071046D01*
X30672513Y3275005D01*
X30667748Y3276571D01*
X30656500Y3298833D01*
X30656500Y3474189D01*
X30656714Y3478805D01*
X30674692Y3672825D01*
X30676384Y3681874D01*
X30729076Y3867069D01*
X30732406Y3875663D01*
X30818226Y4048013D01*
X30823074Y4055843D01*
X30939104Y4209492D01*
X30945316Y4216305D01*
X31087603Y4346018D01*
X31094947Y4351564D01*
X31258661Y4452931D01*
X31266891Y4457029D01*
X31446433Y4526583D01*
X31455301Y4529107D01*
X31638918Y4563431D01*
X31649995Y4541507D01*
X31649995Y4258732D01*
X31573430Y4250105D01*
X31405713Y4191419D01*
X31255261Y4096883D01*
X31129617Y3971239D01*
X31035081Y3820787D01*
X30976395Y3653070D01*
X30956500Y3476500D01*
X30956500Y3275005D01*
X30672513Y3275005D01*
X30672513Y3071046D01*
X30680328Y3074995D01*
X30956500Y3074995D01*
X30956500Y2873500D01*
X30976395Y2696930D01*
X31035081Y2529213D01*
X31129617Y2378761D01*
X31255261Y2253117D01*
X31405713Y2158581D01*
X31573430Y2099895D01*
X31649995Y2091268D01*
X31649995Y1800678D01*
X31648429Y1795913D01*
X31632362Y1787795D01*
X31632362Y300000D01*
X31861082Y300000D01*
X31861082Y1786569D01*
X31850005Y1808493D01*
X31850005Y2091268D01*
X31926570Y2099895D01*
X32094287Y2158581D01*
X32244739Y2253117D01*
X32370383Y2378761D01*
X32464919Y2529213D01*
X32523605Y2696930D01*
X32543500Y2873500D01*
X32543500Y3074995D01*
X32543500Y3275005D01*
X32543500Y3476500D01*
X32523605Y3653070D01*
X32464919Y3820787D01*
X32370383Y3971239D01*
X32244739Y4096883D01*
X32094287Y4191419D01*
X31926570Y4250105D01*
X31850005Y4258732D01*
X31850005Y4549322D01*
X31851571Y4554087D01*
X31867638Y4562205D01*
X32044699Y4529107D01*
X32053567Y4526583D01*
X32233109Y4457029D01*
X32241339Y4452931D01*
X32405053Y4351564D01*
X32412397Y4346018D01*
X32554684Y4216305D01*
X32560896Y4209492D01*
X32676926Y4055843D01*
X32681774Y4048013D01*
X32767594Y3875663D01*
X32770924Y3867069D01*
X32823616Y3681874D01*
X32825308Y3672825D01*
X32843286Y3478805D01*
X32843500Y3474189D01*
X32843500Y3291018D01*
X32841934Y3286253D01*
X32819672Y3275005D01*
X32543500Y3275005D01*
X32543500Y3074995D01*
X32827487Y3074995D01*
X32832252Y3073429D01*
X32843500Y3051167D01*
X32843500Y2875811D01*
X32843286Y2871195D01*
X32825308Y2677175D01*
X32823616Y2668126D01*
X32770924Y2482931D01*
X32767594Y2474337D01*
X32681774Y2301987D01*
X32676926Y2294157D01*
X32560896Y2140508D01*
X32554684Y2133695D01*
X32412397Y2003982D01*
X32405053Y1998436D01*
X32241339Y1897069D01*
X32233109Y1892971D01*
X32053567Y1823417D01*
X32044699Y1820893D01*
X31861082Y1786569D01*
X31861082Y300000D01*
X34285106Y300000D01*
X34285106Y1880482D01*
X34101071Y1898608D01*
X34091474Y1900517D01*
X33914510Y1954198D01*
X33905466Y1957945D01*
X33742376Y2045118D01*
X33734240Y2050555D01*
X33591292Y2167868D01*
X33584368Y2174792D01*
X33467055Y2317740D01*
X33461618Y2325876D01*
X33374445Y2488966D01*
X33370698Y2498010D01*
X33317017Y2674974D01*
X33315108Y2684571D01*
X33296741Y2871057D01*
X33296500Y2875950D01*
X33296500Y3474050D01*
X33296741Y3478943D01*
X33315108Y3665429D01*
X33317017Y3675026D01*
X33370698Y3851990D01*
X33374445Y3861034D01*
X33461618Y4024124D01*
X33467055Y4032260D01*
X33584368Y4175208D01*
X33591292Y4182132D01*
X33734240Y4299445D01*
X33742376Y4304882D01*
X33905466Y4392055D01*
X33914510Y4395802D01*
X34091474Y4449483D01*
X34101071Y4451392D01*
X34285106Y4469518D01*
X34294894Y4469518D01*
X34478929Y4451392D01*
X34488526Y4449483D01*
X34665490Y4395802D01*
X34674534Y4392055D01*
X34837624Y4304882D01*
X34845760Y4299445D01*
X34988708Y4182132D01*
X34995632Y4175208D01*
X35112945Y4032260D01*
X35118382Y4024124D01*
X35205555Y3861034D01*
X35209302Y3851990D01*
X35262983Y3675026D01*
X35264892Y3665429D01*
X35283259Y3478943D01*
X35283500Y3474050D01*
X35283500Y2875950D01*
X35283259Y2871057D01*
X35264892Y2684571D01*
X35262983Y2674974D01*
X35209302Y2498010D01*
X35205555Y2488966D01*
X35118382Y2325876D01*
X35112945Y2317740D01*
X34995632Y2174792D01*
X34988708Y2167868D01*
X34845760Y2050555D01*
X34837624Y2045118D01*
X34674534Y1957945D01*
X34665490Y1954198D01*
X34488526Y1900517D01*
X34478929Y1898608D01*
X34294894Y1880482D01*
X34285106Y1880482D01*
X34285106Y300000D01*
X36041414Y300000D01*
X36041414Y1880000D01*
X36031683Y1880958D01*
X35969623Y1893303D01*
X35951773Y1900696D01*
X35903267Y1933108D01*
X35889608Y1946767D01*
X35857196Y1995273D01*
X35849803Y2013123D01*
X35837458Y2075183D01*
X35836500Y2084914D01*
X35836500Y4265086D01*
X35837458Y4274817D01*
X35849803Y4336877D01*
X35857196Y4354727D01*
X35889608Y4403233D01*
X35903267Y4416892D01*
X35951773Y4449304D01*
X35969623Y4456697D01*
X36031683Y4469042D01*
X36041414Y4470000D01*
X37618586Y4470000D01*
X37628317Y4469042D01*
X37690377Y4456697D01*
X37708227Y4449304D01*
X37756733Y4416892D01*
X37770392Y4403233D01*
X37802804Y4354727D01*
X37810197Y4336877D01*
X37822542Y4274817D01*
X37823500Y4265086D01*
X37823500Y2084914D01*
X37822542Y2075183D01*
X37810197Y2013123D01*
X37802804Y1995273D01*
X37770392Y1946767D01*
X37756733Y1933108D01*
X37708227Y1900696D01*
X37690377Y1893303D01*
X37628317Y1880958D01*
X37618586Y1880000D01*
X36041414Y1880000D01*
X36041414Y300000D01*
X41157362Y300000D01*
X41157362Y1787795D01*
X40980301Y1820893D01*
X40971433Y1823417D01*
X40791891Y1892971D01*
X40783661Y1897069D01*
X40619947Y1998436D01*
X40612603Y2003982D01*
X40470316Y2133695D01*
X40464104Y2140508D01*
X40348074Y2294157D01*
X40343226Y2301987D01*
X40257406Y2474337D01*
X40254076Y2482931D01*
X40201384Y2668126D01*
X40199692Y2677175D01*
X40181714Y2871195D01*
X40181500Y2875811D01*
X40181500Y3058982D01*
X40183066Y3063747D01*
X40197513Y3071046D01*
X40197513Y3275005D01*
X40192748Y3276571D01*
X40181500Y3298833D01*
X40181500Y3474189D01*
X40181714Y3478805D01*
X40199692Y3672825D01*
X40201384Y3681874D01*
X40254076Y3867069D01*
X40257406Y3875663D01*
X40343226Y4048013D01*
X40348074Y4055843D01*
X40464104Y4209492D01*
X40470316Y4216305D01*
X40612603Y4346018D01*
X40619947Y4351564D01*
X40783661Y4452931D01*
X40791891Y4457029D01*
X40971433Y4526583D01*
X40980301Y4529107D01*
X41163918Y4563431D01*
X41174995Y4541507D01*
X41174995Y4258732D01*
X41098430Y4250105D01*
X40930713Y4191419D01*
X40780261Y4096883D01*
X40654617Y3971239D01*
X40560081Y3820787D01*
X40501395Y3653070D01*
X40481500Y3476500D01*
X40481500Y3275005D01*
X40197513Y3275005D01*
X40197513Y3071046D01*
X40205328Y3074995D01*
X40481500Y3074995D01*
X40481500Y2873500D01*
X40501395Y2696930D01*
X40560081Y2529213D01*
X40654617Y2378761D01*
X40780261Y2253117D01*
X40930713Y2158581D01*
X41098430Y2099895D01*
X41174995Y2091268D01*
X41174995Y1800678D01*
X41173429Y1795913D01*
X41157362Y1787795D01*
X41157362Y300000D01*
X41386082Y300000D01*
X41386082Y1786569D01*
X41375005Y1808493D01*
X41375005Y2091268D01*
X41451570Y2099895D01*
X41619287Y2158581D01*
X41769739Y2253117D01*
X41895383Y2378761D01*
X41989919Y2529213D01*
X42048605Y2696930D01*
X42068500Y2873500D01*
X42068500Y3074995D01*
X42068500Y3275005D01*
X42068500Y3476500D01*
X42048605Y3653070D01*
X41989919Y3820787D01*
X41895383Y3971239D01*
X41769739Y4096883D01*
X41619287Y4191419D01*
X41451570Y4250105D01*
X41375005Y4258732D01*
X41375005Y4549322D01*
X41376571Y4554087D01*
X41392638Y4562205D01*
X41569699Y4529107D01*
X41578567Y4526583D01*
X41758109Y4457029D01*
X41766339Y4452931D01*
X41930053Y4351564D01*
X41937397Y4346018D01*
X42079684Y4216305D01*
X42085896Y4209492D01*
X42201926Y4055843D01*
X42206774Y4048013D01*
X42292594Y3875663D01*
X42295924Y3867069D01*
X42348616Y3681874D01*
X42350308Y3672825D01*
X42368286Y3478805D01*
X42368500Y3474189D01*
X42368500Y3291018D01*
X42366934Y3286253D01*
X42344672Y3275005D01*
X42068500Y3275005D01*
X42068500Y3074995D01*
X42352487Y3074995D01*
X42357252Y3073429D01*
X42368500Y3051167D01*
X42368500Y2875811D01*
X42368286Y2871195D01*
X42350308Y2677175D01*
X42348616Y2668126D01*
X42295924Y2482931D01*
X42292594Y2474337D01*
X42206774Y2301987D01*
X42201926Y2294157D01*
X42085896Y2140508D01*
X42079684Y2133695D01*
X41937397Y2003982D01*
X41930053Y1998436D01*
X41766339Y1897069D01*
X41758109Y1892971D01*
X41578567Y1823417D01*
X41569699Y1820893D01*
X41386082Y1786569D01*
X41386082Y300000D01*
X43810106Y300000D01*
X43810106Y1880482D01*
X43626071Y1898608D01*
X43616474Y1900517D01*
X43439510Y1954198D01*
X43430466Y1957945D01*
X43267376Y2045118D01*
X43259240Y2050555D01*
X43116292Y2167868D01*
X43109368Y2174792D01*
X42992055Y2317740D01*
X42986618Y2325876D01*
X42899445Y2488966D01*
X42895698Y2498010D01*
X42842017Y2674974D01*
X42840108Y2684571D01*
X42821741Y2871057D01*
X42821500Y2875950D01*
X42821500Y3474050D01*
X42821741Y3478943D01*
X42840108Y3665429D01*
X42842017Y3675026D01*
X42895698Y3851990D01*
X42899445Y3861034D01*
X42986618Y4024124D01*
X42992055Y4032260D01*
X43109368Y4175208D01*
X43116292Y4182132D01*
X43259240Y4299445D01*
X43267376Y4304882D01*
X43430466Y4392055D01*
X43439510Y4395802D01*
X43616474Y4449483D01*
X43626071Y4451392D01*
X43810106Y4469518D01*
X43819894Y4469518D01*
X44003929Y4451392D01*
X44013526Y4449483D01*
X44190490Y4395802D01*
X44199534Y4392055D01*
X44362624Y4304882D01*
X44370760Y4299445D01*
X44513708Y4182132D01*
X44520632Y4175208D01*
X44637945Y4032260D01*
X44643382Y4024124D01*
X44730555Y3861034D01*
X44734302Y3851990D01*
X44787983Y3675026D01*
X44789892Y3665429D01*
X44808259Y3478943D01*
X44808500Y3474050D01*
X44808500Y2875950D01*
X44808259Y2871057D01*
X44789892Y2684571D01*
X44787983Y2674974D01*
X44734302Y2498010D01*
X44730555Y2488966D01*
X44643382Y2325876D01*
X44637945Y2317740D01*
X44520632Y2174792D01*
X44513708Y2167868D01*
X44370760Y2050555D01*
X44362624Y2045118D01*
X44199534Y1957945D01*
X44190490Y1954198D01*
X44013526Y1900517D01*
X44003929Y1898608D01*
X43819894Y1880482D01*
X43810106Y1880482D01*
X43810106Y300000D01*
X45566414Y300000D01*
X45566414Y1880000D01*
X45556683Y1880958D01*
X45494623Y1893303D01*
X45476773Y1900696D01*
X45428267Y1933108D01*
X45414608Y1946767D01*
X45382196Y1995273D01*
X45374803Y2013123D01*
X45362458Y2075183D01*
X45361500Y2084914D01*
X45361500Y4265086D01*
X45362458Y4274817D01*
X45374803Y4336877D01*
X45382196Y4354727D01*
X45414608Y4403233D01*
X45428267Y4416892D01*
X45476773Y4449304D01*
X45494623Y4456697D01*
X45556683Y4469042D01*
X45566414Y4470000D01*
X47143586Y4470000D01*
X47153317Y4469042D01*
X47215377Y4456697D01*
X47233227Y4449304D01*
X47281733Y4416892D01*
X47295392Y4403233D01*
X47327804Y4354727D01*
X47335197Y4336877D01*
X47347542Y4274817D01*
X47348500Y4265086D01*
X47348500Y2084914D01*
X47347542Y2075183D01*
X47335197Y2013123D01*
X47327804Y1995273D01*
X47295392Y1946767D01*
X47281733Y1933108D01*
X47233227Y1900696D01*
X47215377Y1893303D01*
X47153317Y1880958D01*
X47143586Y1880000D01*
X45566414Y1880000D01*
X45566414Y300000D01*
X50523612Y300000D01*
X50523612Y1787795D01*
X50346551Y1820893D01*
X50337683Y1823417D01*
X50158141Y1892971D01*
X50149911Y1897069D01*
X49986197Y1998436D01*
X49978853Y2003982D01*
X49836566Y2133695D01*
X49830354Y2140508D01*
X49714324Y2294157D01*
X49709476Y2301987D01*
X49623656Y2474337D01*
X49620326Y2482931D01*
X49567634Y2668126D01*
X49565942Y2677175D01*
X49547964Y2871195D01*
X49547750Y2875811D01*
X49547750Y3058982D01*
X49549316Y3063747D01*
X49563763Y3071046D01*
X49563763Y3275005D01*
X49558998Y3276571D01*
X49547750Y3298833D01*
X49547750Y3474189D01*
X49547964Y3478805D01*
X49565942Y3672825D01*
X49567634Y3681874D01*
X49620326Y3867069D01*
X49623656Y3875663D01*
X49709476Y4048013D01*
X49714324Y4055843D01*
X49830354Y4209492D01*
X49836566Y4216305D01*
X49978853Y4346018D01*
X49986197Y4351564D01*
X50149911Y4452931D01*
X50158141Y4457029D01*
X50337683Y4526583D01*
X50346551Y4529107D01*
X50530168Y4563431D01*
X50541245Y4541507D01*
X50541245Y4258732D01*
X50464680Y4250105D01*
X50296963Y4191419D01*
X50146511Y4096883D01*
X50020867Y3971239D01*
X49926331Y3820787D01*
X49867645Y3653070D01*
X49847750Y3476500D01*
X49847750Y3275005D01*
X49563763Y3275005D01*
X49563763Y3071046D01*
X49571578Y3074995D01*
X49847750Y3074995D01*
X49847750Y2873500D01*
X49867645Y2696930D01*
X49926331Y2529213D01*
X50020867Y2378761D01*
X50146511Y2253117D01*
X50296963Y2158581D01*
X50464680Y2099895D01*
X50541245Y2091268D01*
X50541245Y1800678D01*
X50539679Y1795913D01*
X50523612Y1787795D01*
X50523612Y300000D01*
X50752332Y300000D01*
X50752332Y1786569D01*
X50741255Y1808493D01*
X50741255Y2091268D01*
X50817820Y2099895D01*
X50985537Y2158581D01*
X51135989Y2253117D01*
X51261633Y2378761D01*
X51356169Y2529213D01*
X51414855Y2696930D01*
X51434750Y2873500D01*
X51434750Y3074995D01*
X51434750Y3275005D01*
X51434750Y3476500D01*
X51414855Y3653070D01*
X51356169Y3820787D01*
X51261633Y3971239D01*
X51135989Y4096883D01*
X50985537Y4191419D01*
X50817820Y4250105D01*
X50741255Y4258732D01*
X50741255Y4549322D01*
X50742821Y4554087D01*
X50758888Y4562205D01*
X50935949Y4529107D01*
X50944817Y4526583D01*
X51124359Y4457029D01*
X51132589Y4452931D01*
X51296303Y4351564D01*
X51303647Y4346018D01*
X51445934Y4216305D01*
X51452146Y4209492D01*
X51568176Y4055843D01*
X51573024Y4048013D01*
X51658844Y3875663D01*
X51662174Y3867069D01*
X51714866Y3681874D01*
X51716558Y3672825D01*
X51734536Y3478805D01*
X51734750Y3474189D01*
X51734750Y3291018D01*
X51733184Y3286253D01*
X51710922Y3275005D01*
X51434750Y3275005D01*
X51434750Y3074995D01*
X51718737Y3074995D01*
X51723502Y3073429D01*
X51734750Y3051167D01*
X51734750Y2875811D01*
X51734536Y2871195D01*
X51716558Y2677175D01*
X51714866Y2668126D01*
X51662174Y2482931D01*
X51658844Y2474337D01*
X51573024Y2301987D01*
X51568176Y2294157D01*
X51452146Y2140508D01*
X51445934Y2133695D01*
X51303647Y2003982D01*
X51296303Y1998436D01*
X51132589Y1897069D01*
X51124359Y1892971D01*
X50944817Y1823417D01*
X50935949Y1820893D01*
X50752332Y1786569D01*
X50752332Y300000D01*
X53176356Y300000D01*
X53176356Y1880482D01*
X52992321Y1898608D01*
X52982724Y1900517D01*
X52805760Y1954198D01*
X52796716Y1957945D01*
X52633626Y2045118D01*
X52625490Y2050555D01*
X52482542Y2167868D01*
X52475618Y2174792D01*
X52358305Y2317740D01*
X52352868Y2325876D01*
X52265695Y2488966D01*
X52261948Y2498010D01*
X52208267Y2674974D01*
X52206358Y2684571D01*
X52187991Y2871057D01*
X52187750Y2875950D01*
X52187750Y3474050D01*
X52187991Y3478943D01*
X52206358Y3665429D01*
X52208267Y3675026D01*
X52261948Y3851990D01*
X52265695Y3861034D01*
X52352868Y4024124D01*
X52358305Y4032260D01*
X52475618Y4175208D01*
X52482542Y4182132D01*
X52625490Y4299445D01*
X52633626Y4304882D01*
X52796716Y4392055D01*
X52805760Y4395802D01*
X52982724Y4449483D01*
X52992321Y4451392D01*
X53176356Y4469518D01*
X53186144Y4469518D01*
X53370179Y4451392D01*
X53379776Y4449483D01*
X53556740Y4395802D01*
X53565784Y4392055D01*
X53728874Y4304882D01*
X53737010Y4299445D01*
X53879958Y4182132D01*
X53886882Y4175208D01*
X54004195Y4032260D01*
X54009632Y4024124D01*
X54096805Y3861034D01*
X54100552Y3851990D01*
X54154233Y3675026D01*
X54156142Y3665429D01*
X54174509Y3478943D01*
X54174750Y3474050D01*
X54174750Y2875950D01*
X54174509Y2871057D01*
X54156142Y2684571D01*
X54154233Y2674974D01*
X54100552Y2498010D01*
X54096805Y2488966D01*
X54009632Y2325876D01*
X54004195Y2317740D01*
X53886882Y2174792D01*
X53879958Y2167868D01*
X53737010Y2050555D01*
X53728874Y2045118D01*
X53565784Y1957945D01*
X53556740Y1954198D01*
X53379776Y1900517D01*
X53370179Y1898608D01*
X53186144Y1880482D01*
X53176356Y1880482D01*
X53176356Y300000D01*
X54932664Y300000D01*
X54932664Y1880000D01*
X54922933Y1880958D01*
X54860873Y1893303D01*
X54843023Y1900696D01*
X54794517Y1933108D01*
X54780858Y1946767D01*
X54748446Y1995273D01*
X54741053Y2013123D01*
X54728708Y2075183D01*
X54727750Y2084914D01*
X54727750Y4265086D01*
X54728708Y4274817D01*
X54741053Y4336877D01*
X54748446Y4354727D01*
X54780858Y4403233D01*
X54794517Y4416892D01*
X54843023Y4449304D01*
X54860873Y4456697D01*
X54922933Y4469042D01*
X54932664Y4470000D01*
X55748392Y4470000D01*
X55748392Y13777677D01*
X55564668Y13794701D01*
X55555619Y13796393D01*
X55378145Y13846888D01*
X55369551Y13850218D01*
X55204387Y13932460D01*
X55196557Y13937307D01*
X55049314Y14048501D01*
X55042501Y14054713D01*
X54918196Y14191068D01*
X54912650Y14198412D01*
X54815509Y14355301D01*
X54811411Y14363531D01*
X54744755Y14535587D01*
X54742232Y14544455D01*
X54708328Y14725824D01*
X54707479Y14734989D01*
X54707479Y14919511D01*
X54708328Y14928676D01*
X54742232Y15110045D01*
X54744755Y15118913D01*
X54811411Y15290969D01*
X54815509Y15299199D01*
X54907914Y15448439D01*
X54907914Y29017250D01*
X54898183Y29018208D01*
X54836123Y29030553D01*
X54818273Y29037946D01*
X54769767Y29070358D01*
X54756108Y29084017D01*
X54723696Y29132523D01*
X54716303Y29150373D01*
X54703958Y29212433D01*
X54703000Y29222164D01*
X54703000Y30912336D01*
X54703958Y30922067D01*
X54716303Y30984127D01*
X54723696Y31001977D01*
X54756108Y31050483D01*
X54769767Y31064142D01*
X54818273Y31096554D01*
X54836123Y31103947D01*
X54898183Y31116292D01*
X54907914Y31117250D01*
X56598086Y31117250D01*
X56607817Y31116292D01*
X56669877Y31103947D01*
X56687727Y31096554D01*
X56736233Y31064142D01*
X56749892Y31050483D01*
X56782304Y31001977D01*
X56789697Y30984127D01*
X56802042Y30922067D01*
X56803000Y30912336D01*
X56803000Y29222164D01*
X56802042Y29212433D01*
X56789697Y29150373D01*
X56782304Y29132523D01*
X56749892Y29084017D01*
X56736233Y29070358D01*
X56687727Y29037946D01*
X56669877Y29030553D01*
X56607817Y29018208D01*
X56598086Y29017250D01*
X54907914Y29017250D01*
X54907914Y15448439D01*
X54912650Y15456088D01*
X54918196Y15463432D01*
X55042501Y15599787D01*
X55049314Y15605999D01*
X55196557Y15717193D01*
X55204387Y15722040D01*
X55369551Y15804282D01*
X55378145Y15807612D01*
X55555619Y15858107D01*
X55564668Y15859799D01*
X55748392Y15876823D01*
X55757608Y15876823D01*
X55941332Y15859799D01*
X55950381Y15858107D01*
X56127855Y15807612D01*
X56136449Y15804282D01*
X56301613Y15722040D01*
X56309443Y15717193D01*
X56456686Y15605999D01*
X56463499Y15599787D01*
X56587804Y15463432D01*
X56593350Y15456088D01*
X56690491Y15299199D01*
X56694589Y15290969D01*
X56761245Y15118913D01*
X56763768Y15110045D01*
X56797672Y14928676D01*
X56798521Y14919511D01*
X56798521Y14734989D01*
X56797672Y14725824D01*
X56763768Y14544455D01*
X56761245Y14535587D01*
X56694589Y14363531D01*
X56690491Y14355301D01*
X56593350Y14198412D01*
X56587804Y14191068D01*
X56463499Y14054713D01*
X56456686Y14048501D01*
X56309443Y13937307D01*
X56301613Y13932460D01*
X56136449Y13850218D01*
X56127855Y13846888D01*
X55950381Y13796393D01*
X55941332Y13794701D01*
X55757608Y13777677D01*
X55748392Y13777677D01*
X55748392Y4470000D01*
X56509836Y4470000D01*
X56519567Y4469042D01*
X56581627Y4456697D01*
X56599477Y4449304D01*
X56647983Y4416892D01*
X56661642Y4403233D01*
X56694054Y4354727D01*
X56701447Y4336877D01*
X56713792Y4274817D01*
X56714750Y4265086D01*
X56714750Y2084914D01*
X56713792Y2075183D01*
X56701447Y2013123D01*
X56694054Y1995273D01*
X56661642Y1946767D01*
X56647983Y1933108D01*
X56599477Y1900696D01*
X56581627Y1893303D01*
X56519567Y1880958D01*
X56509836Y1880000D01*
X54932664Y1880000D01*
X54932664Y300000D01*
X58191512Y300000D01*
X58191512Y13682156D01*
X58182347Y13683005D01*
X57982833Y13720301D01*
X57973976Y13722822D01*
X57784719Y13796139D01*
X57776467Y13800248D01*
X57603898Y13907098D01*
X57596554Y13912644D01*
X57446562Y14049381D01*
X57440350Y14056194D01*
X57318036Y14218164D01*
X57313188Y14225994D01*
X57222721Y14407677D01*
X57219391Y14416271D01*
X57163846Y14611494D01*
X57162154Y14620543D01*
X57143427Y14822642D01*
X57143427Y14831858D01*
X57162154Y15033957D01*
X57163846Y15043006D01*
X57219391Y15238229D01*
X57222721Y15246823D01*
X57313188Y15428506D01*
X57318036Y15436336D01*
X57440350Y15598306D01*
X57446562Y15605119D01*
X57596554Y15741856D01*
X57603898Y15747402D01*
X57776467Y15854252D01*
X57784719Y15858361D01*
X57973976Y15931678D01*
X57982833Y15934199D01*
X58182347Y15971495D01*
X58191512Y15972344D01*
X58191512Y28922156D01*
X58182347Y28923005D01*
X57982833Y28960301D01*
X57973976Y28962822D01*
X57784719Y29036139D01*
X57776467Y29040248D01*
X57603898Y29147098D01*
X57596554Y29152644D01*
X57446562Y29289381D01*
X57440350Y29296194D01*
X57318036Y29458164D01*
X57313188Y29465994D01*
X57222721Y29647677D01*
X57219391Y29656271D01*
X57163846Y29851494D01*
X57162154Y29860543D01*
X57143427Y30062642D01*
X57143427Y30071858D01*
X57162154Y30273957D01*
X57163846Y30283006D01*
X57219391Y30478229D01*
X57222721Y30486823D01*
X57313188Y30668506D01*
X57318036Y30676336D01*
X57440350Y30838306D01*
X57446562Y30845119D01*
X57596554Y30981856D01*
X57603898Y30987402D01*
X57776467Y31094252D01*
X57784719Y31098361D01*
X57973976Y31171678D01*
X57982833Y31174199D01*
X58182347Y31211495D01*
X58191512Y31212344D01*
X58394488Y31212344D01*
X58403653Y31211495D01*
X58603167Y31174199D01*
X58612024Y31171678D01*
X58801281Y31098361D01*
X58809533Y31094252D01*
X58982102Y30987402D01*
X58989446Y30981856D01*
X59139438Y30845119D01*
X59145650Y30838306D01*
X59267964Y30676336D01*
X59272812Y30668506D01*
X59363279Y30486823D01*
X59366609Y30478229D01*
X59422154Y30283006D01*
X59423846Y30273957D01*
X59442573Y30071858D01*
X59442573Y30062642D01*
X59423846Y29860543D01*
X59422154Y29851494D01*
X59366609Y29656271D01*
X59363279Y29647677D01*
X59272812Y29465994D01*
X59267964Y29458164D01*
X59145650Y29296194D01*
X59139438Y29289381D01*
X58989446Y29152644D01*
X58982102Y29147098D01*
X58809533Y29040248D01*
X58801281Y29036139D01*
X58612024Y28962822D01*
X58603167Y28960301D01*
X58403653Y28923005D01*
X58394488Y28922156D01*
X58191512Y28922156D01*
X58191512Y15972344D01*
X58394488Y15972344D01*
X58403653Y15971495D01*
X58603167Y15934199D01*
X58612024Y15931678D01*
X58801281Y15858361D01*
X58809533Y15854252D01*
X58982102Y15747402D01*
X58989446Y15741856D01*
X59139438Y15605119D01*
X59145650Y15598306D01*
X59267964Y15436336D01*
X59272812Y15428506D01*
X59363279Y15246823D01*
X59366609Y15238229D01*
X59422154Y15043006D01*
X59423846Y15033957D01*
X59442573Y14831858D01*
X59442573Y14822642D01*
X59423846Y14620543D01*
X59422154Y14611494D01*
X59366609Y14416271D01*
X59363279Y14407677D01*
X59272812Y14225994D01*
X59267964Y14218164D01*
X59145650Y14056194D01*
X59139438Y14049381D01*
X58989446Y13912644D01*
X58982102Y13907098D01*
X58809533Y13800248D01*
X58801281Y13796139D01*
X58612024Y13722822D01*
X58603167Y13720301D01*
X58403653Y13683005D01*
X58394488Y13682156D01*
X58191512Y13682156D01*
X58191512Y300000D01*
X61512501Y300000D01*
X61571828Y319500D01*
X61612500Y399999D01*
X61612500Y32937501D01*
X61593000Y32996828D01*
X61512501Y33037500D01*
X399999Y33037500D01*
X340672Y33018000D01*
X300000Y32937501D01*
X300000Y399999D01*
G37*
G04 --- BOARD END --- *
G04 #@! TF.MD5,70b195f3e3b5df5f941e5dde0423d8f3*
M02*
