M48
; #@! TF.GenerationSoftware,LibrePCB,LibrePCB,2.1.1
; #@! TF.CreationDate,2026-06-15T03:22:33
; #@! TF.ProjectId,atmega328_uart_servodriver,c2782951-d4af-45cf-b0d1-a6685f95ab20,v1
; #@! TF.Part,Single
; #@! TF.SameCoordinates
; #@! TF.FileFunction,Plated,1,2,PTH
FMAT,2
METRIC,TZ
; #@! TA.AperFunction,ViaDrill
T1C0.3
; #@! TA.AperFunction,ComponentDrill
T2C0.8
; #@! TA.AperFunction,ComponentDrill
T3C0.9
; #@! TA.AperFunction,ComponentDrill
T4C1.0
; #@! TA.AperFunction,ComponentDrill
T5C1.2
%
G90
G05
M71
T1
X50.32375Y7.3025
X40.9575Y7.3025
X2.8575Y7.3025
X21.9075Y7.3025
X53.18125Y7.77875
X43.815Y7.62
X34.29Y7.62
X15.24Y7.3025
X24.765Y7.3025
X5.715Y7.46125
X31.4325Y7.3025
X12.3825Y7.3025
T2
X4.485Y15.24
X9.485Y15.24
T3
X22.733Y14.82725
X20.193Y14.82725
X30.353Y30.06725
X48.133Y30.06725
X27.813Y14.82725
X20.193Y30.06725
X25.273Y14.82725
X50.673Y14.82725
X48.133Y14.82725
X37.973Y14.82725
X43.053Y30.06725
X32.893Y30.06725
X30.353Y14.82725
X55.753Y14.82725
X50.673Y30.06725
X25.273Y30.06725
X27.813Y30.06725
X37.973Y30.06725
X55.753Y30.06725
X22.733Y30.06725
X45.593Y30.06725
X53.213Y14.82725
X40.513Y30.06725
X35.433Y30.06725
X35.433Y14.82725
X40.513Y14.82725
X45.593Y14.82725
X43.053Y14.82725
X32.893Y14.82725
X53.213Y30.06725
T4
X53.18125Y3.175
X50.64125Y3.175
X55.72125Y3.175
X5.715Y3.175
X3.175Y3.175
X8.255Y3.175
X34.29Y3.175
X31.75Y3.175
X36.83Y3.175
X43.815Y3.175
X41.275Y3.175
X46.355Y3.175
X24.765Y3.175
X22.225Y3.175
X27.305Y3.175
X15.24Y3.175
X12.7Y3.175
X17.78Y3.175
T5
X4.2945Y25.43175
X9.2945Y25.43175
T0
M30
